G04 #@! TF.GenerationSoftware,KiCad,Pcbnew,(6.99.0-566-g22ff66f142)*
G04 #@! TF.CreationDate,2022-04-28T17:10:11+03:00*
G04 #@! TF.ProjectId,lumberjerk,6c756d62-6572-46a6-9572-6b2e6b696361,1.2*
G04 #@! TF.SameCoordinates,Original*
G04 #@! TF.FileFunction,Paste,Top*
G04 #@! TF.FilePolarity,Positive*
%FSLAX46Y46*%
G04 Gerber Fmt 4.6, Leading zero omitted, Abs format (unit mm)*
G04 Created by KiCad (PCBNEW (6.99.0-566-g22ff66f142)) date 2022-04-28 17:10:11*
%MOMM*%
%LPD*%
G01*
G04 APERTURE LIST*
%ADD10R,0.900000X1.200000*%
%ADD11R,1.200000X0.900000*%
%ADD12R,1.200000X1.800000*%
%ADD13R,0.600000X1.550000*%
G04 APERTURE END LIST*
D10*
X136587467Y-111918749D03*
X133287467Y-111918749D03*
D11*
X163512467Y-140431249D03*
X163512467Y-143731249D03*
D10*
X168212467Y-111918749D03*
X171512467Y-111918749D03*
D11*
X147637467Y-140431249D03*
X147637467Y-143731249D03*
D10*
X136587467Y-73818749D03*
X133287467Y-73818749D03*
X168212467Y-121443749D03*
X171512467Y-121443749D03*
X168212467Y-134143749D03*
X171512467Y-134143749D03*
X168212467Y-76993749D03*
X171512467Y-76993749D03*
X168212467Y-124618749D03*
X171512467Y-124618749D03*
D11*
X144462467Y-140431249D03*
X144462467Y-143731249D03*
D10*
X168212467Y-137318749D03*
X171512467Y-137318749D03*
X136587467Y-108743749D03*
X133287467Y-108743749D03*
X136587467Y-115093749D03*
X133287467Y-115093749D03*
X136587467Y-86518749D03*
X133287467Y-86518749D03*
X168212467Y-86518749D03*
X171512467Y-86518749D03*
X136587467Y-67468749D03*
X133287467Y-67468749D03*
D11*
X169862467Y-140431249D03*
X169862467Y-143731249D03*
X138112467Y-140431249D03*
X138112467Y-143731249D03*
D10*
X168212467Y-70643749D03*
X171512467Y-70643749D03*
X168212467Y-73818749D03*
X171512467Y-73818749D03*
X136587467Y-124618749D03*
X133287467Y-124618749D03*
X168212467Y-108743749D03*
X171512467Y-108743749D03*
X168212467Y-92868749D03*
X171512467Y-92868749D03*
X136587467Y-137318749D03*
X133287467Y-137318749D03*
X136587467Y-80168749D03*
X133287467Y-80168749D03*
X168212467Y-118268749D03*
X171512467Y-118268749D03*
X136587467Y-134143749D03*
X133287467Y-134143749D03*
X168212467Y-67468749D03*
X171512467Y-67468749D03*
X168212467Y-127793749D03*
X171512467Y-127793749D03*
X136587467Y-89693749D03*
X133287467Y-89693749D03*
X168212467Y-80168749D03*
X171512467Y-80168749D03*
D11*
X166687467Y-140431249D03*
X166687467Y-143731249D03*
X153987467Y-140431249D03*
X153987467Y-143731249D03*
D10*
X168212467Y-105568749D03*
X171512467Y-105568749D03*
X168212467Y-99218749D03*
X171512467Y-99218749D03*
X136587467Y-92868749D03*
X133287467Y-92868749D03*
X168212467Y-130968749D03*
X171512467Y-130968749D03*
X136587467Y-83343749D03*
X133287467Y-83343749D03*
X136587467Y-64293749D03*
X133287467Y-64293749D03*
X168212467Y-83343749D03*
X171512467Y-83343749D03*
X168212467Y-89693749D03*
X171512467Y-89693749D03*
X136587467Y-76993749D03*
X133287467Y-76993749D03*
D12*
X149599967Y-68156249D03*
X155199967Y-68156249D03*
D13*
X150899967Y-64281249D03*
X151899967Y-64281249D03*
X152899967Y-64281249D03*
X153899967Y-64281249D03*
D11*
X150812467Y-140431249D03*
X150812467Y-143731249D03*
X134937467Y-140431249D03*
X134937467Y-143731249D03*
D10*
X136587467Y-130968749D03*
X133287467Y-130968749D03*
X136587467Y-121443749D03*
X133287467Y-121443749D03*
X136587467Y-96043749D03*
X133287467Y-96043749D03*
D11*
X157162467Y-140431249D03*
X157162467Y-143731249D03*
D10*
X168212467Y-115093749D03*
X171512467Y-115093749D03*
X168212467Y-64293749D03*
X171512467Y-64293749D03*
X168212467Y-96043749D03*
X171512467Y-96043749D03*
D11*
X141287467Y-140431249D03*
X141287467Y-143731249D03*
X160337467Y-140431249D03*
X160337467Y-143731249D03*
D10*
X168212467Y-102393749D03*
X171512467Y-102393749D03*
X136587467Y-118268749D03*
X133287467Y-118268749D03*
X136587467Y-105568749D03*
X133287467Y-105568749D03*
X136587467Y-127793749D03*
X133287467Y-127793749D03*
X136587467Y-99218749D03*
X133287467Y-99218749D03*
X136587467Y-102393749D03*
X133287467Y-102393749D03*
X136587467Y-70643749D03*
X133287467Y-70643749D03*
M02*
