G04 #@! TF.GenerationSoftware,KiCad,Pcbnew,(6.99.0-566-g22ff66f142)*
G04 #@! TF.CreationDate,2022-04-28T17:10:11+03:00*
G04 #@! TF.ProjectId,lumberjerk,6c756d62-6572-46a6-9572-6b2e6b696361,1.2*
G04 #@! TF.SameCoordinates,Original*
G04 #@! TF.FileFunction,Soldermask,Bot*
G04 #@! TF.FilePolarity,Negative*
%FSLAX46Y46*%
G04 Gerber Fmt 4.6, Leading zero omitted, Abs format (unit mm)*
G04 Created by KiCad (PCBNEW (6.99.0-566-g22ff66f142)) date 2022-04-28 17:10:11*
%MOMM*%
%LPD*%
G01*
G04 APERTURE LIST*
%ADD10C,5.000000*%
%ADD11O,7.000000X2.500000*%
%ADD12C,2.250000*%
%ADD13O,5.000000X2.500000*%
%ADD14R,1.600000X1.600000*%
%ADD15C,1.600000*%
%ADD16R,1.800000X1.200000*%
%ADD17R,1.550000X0.600000*%
G04 APERTURE END LIST*
D10*
X128587608Y-59531300D03*
X176212648Y-59531300D03*
X128587608Y-144661059D03*
X176212648Y-144661059D03*
D11*
X11905967Y-111893749D03*
X292893717Y-111893749D03*
D12*
X196724968Y-139835000D03*
X196724968Y-145555000D03*
X197524968Y-136493750D03*
X202524968Y-135993750D03*
X203324968Y-139835000D03*
X203324968Y-145555000D03*
X110999968Y-63635000D03*
X110999968Y-69355000D03*
X111799968Y-60293750D03*
X116799968Y-59793750D03*
X117599968Y-63635000D03*
X117599968Y-69355000D03*
X91949968Y-63635000D03*
X91949968Y-69355000D03*
X92749968Y-60293750D03*
X97749968Y-59793750D03*
X98549968Y-63635000D03*
X98549968Y-69355000D03*
X34799968Y-101735000D03*
X34799968Y-107455000D03*
X35599968Y-98393750D03*
X40599968Y-97893750D03*
X41399968Y-101735000D03*
X41399968Y-107455000D03*
X187199968Y-63635000D03*
X187199968Y-69355000D03*
X187999968Y-60293750D03*
X192999968Y-59793750D03*
X193799968Y-63635000D03*
X193799968Y-69355000D03*
D13*
X269959967Y-82995749D03*
D12*
X53849968Y-120785000D03*
X53849968Y-126505000D03*
X54649968Y-117443750D03*
X59649968Y-116943750D03*
X60449968Y-120785000D03*
X60449968Y-126505000D03*
X187199968Y-82685000D03*
X187199968Y-88405000D03*
X187999968Y-79343750D03*
X192999968Y-78843750D03*
X193799968Y-82685000D03*
X193799968Y-88405000D03*
X225299968Y-63635000D03*
X225299968Y-69355000D03*
X226099968Y-60293750D03*
X231099968Y-59793750D03*
X231899968Y-63635000D03*
X231899968Y-69355000D03*
X110999968Y-82685000D03*
X110999968Y-88405000D03*
X111799968Y-79343750D03*
X116799968Y-78843750D03*
X117599968Y-82685000D03*
X117599968Y-88405000D03*
X34799968Y-63635000D03*
X34799968Y-69355000D03*
X35599968Y-60293750D03*
X40599968Y-59793750D03*
X41399968Y-63635000D03*
X41399968Y-69355000D03*
X72899968Y-63635000D03*
X72899968Y-69355000D03*
X73699968Y-60293750D03*
X78699968Y-59793750D03*
X79499968Y-63635000D03*
X79499968Y-69355000D03*
X15749968Y-139835000D03*
X15749968Y-145555000D03*
X16549968Y-136493750D03*
X21549968Y-135993750D03*
X22349968Y-139835000D03*
X22349968Y-145555000D03*
X53849968Y-63635000D03*
X53849968Y-69355000D03*
X54649968Y-60293750D03*
X59649968Y-59793750D03*
X60449968Y-63635000D03*
X60449968Y-69355000D03*
X206249968Y-139835000D03*
X206249968Y-145555000D03*
X207049968Y-136493750D03*
X212049968Y-135993750D03*
X212849968Y-139835000D03*
X212849968Y-145555000D03*
X282449968Y-139835000D03*
X282449968Y-145555000D03*
X283249968Y-136493750D03*
X288249968Y-135993750D03*
X289049968Y-139835000D03*
X289049968Y-145555000D03*
X15749968Y-120785000D03*
X15749968Y-126505000D03*
X16549968Y-117443750D03*
X21549968Y-116943750D03*
X22349968Y-120785000D03*
X22349968Y-126505000D03*
X263399968Y-82685000D03*
X263399968Y-88405000D03*
X264199968Y-79343750D03*
X269199968Y-78843750D03*
X269999968Y-88405000D03*
X53849968Y-101735000D03*
X53849968Y-107455000D03*
X54649968Y-98393750D03*
X59649968Y-97893750D03*
X60449968Y-101735000D03*
X60449968Y-107455000D03*
X244349968Y-101735000D03*
X244349968Y-107455000D03*
X245149968Y-98393750D03*
X250149968Y-97893750D03*
X250949968Y-101735000D03*
X250949968Y-107455000D03*
X263399968Y-63635000D03*
X263399968Y-69355000D03*
X264199968Y-60293750D03*
X269199968Y-59793750D03*
X269999968Y-63635000D03*
X269999968Y-69355000D03*
X101474968Y-139835000D03*
X101474968Y-145555000D03*
X102274968Y-136493750D03*
X107274968Y-135993750D03*
X108074968Y-139835000D03*
X108074968Y-145555000D03*
X244349968Y-63635000D03*
X244349968Y-69355000D03*
X245149968Y-60293750D03*
X250149968Y-59793750D03*
X250949968Y-63635000D03*
X250949968Y-69355000D03*
X187199968Y-139835000D03*
X187199968Y-145555000D03*
X187999968Y-136493750D03*
X192999968Y-135993750D03*
X193799968Y-139835000D03*
X193799968Y-145555000D03*
D13*
X35124967Y-83343749D03*
D12*
X53849968Y-139835000D03*
X53849968Y-145555000D03*
X54649968Y-136493750D03*
X59649968Y-135993750D03*
X60449968Y-139835000D03*
X60449968Y-145555000D03*
X263399968Y-101735000D03*
X263399968Y-107455000D03*
X264199968Y-98393750D03*
X269199968Y-97893750D03*
X269999968Y-101735000D03*
X269999968Y-107455000D03*
X91949968Y-101735000D03*
X91949968Y-107455000D03*
X92749968Y-98393750D03*
X97749968Y-97893750D03*
X98549968Y-101735000D03*
X98549968Y-107455000D03*
X110999968Y-101735000D03*
X110999968Y-107455000D03*
X111799968Y-98393750D03*
X116799968Y-97893750D03*
X117599968Y-101735000D03*
X117599968Y-107455000D03*
X282449968Y-120785000D03*
X282449968Y-126505000D03*
X283249968Y-117443750D03*
X288249968Y-116943750D03*
X289049968Y-120785000D03*
X289049968Y-126505000D03*
X244349968Y-139835000D03*
X244349968Y-145555000D03*
X245149968Y-136493750D03*
X250149968Y-135993750D03*
X250949968Y-139835000D03*
X250949968Y-145555000D03*
X263399968Y-139835000D03*
X263399968Y-145555000D03*
X264199968Y-136493750D03*
X269199968Y-135993750D03*
X269999968Y-139835000D03*
X269999968Y-145555000D03*
X110999968Y-139835000D03*
X110999968Y-145555000D03*
X111799968Y-136493750D03*
X116799968Y-135993750D03*
X117599968Y-139835000D03*
X117599968Y-145555000D03*
X244349968Y-82685000D03*
X244349968Y-88405000D03*
X245149968Y-79343750D03*
X250149968Y-78843750D03*
X250949968Y-82685000D03*
X250949968Y-88405000D03*
X282449968Y-82685000D03*
X282449968Y-88405000D03*
X283249968Y-79343750D03*
X288249968Y-78843750D03*
X289049968Y-82685000D03*
X289049968Y-88405000D03*
X187199968Y-101735000D03*
X187199968Y-107455000D03*
X187999968Y-98393750D03*
X192999968Y-97893750D03*
X193799968Y-101735000D03*
X193799968Y-107455000D03*
X91949968Y-82685000D03*
X91949968Y-88405000D03*
X92749968Y-79343750D03*
X97749968Y-78843750D03*
X98549968Y-82685000D03*
X98549968Y-88405000D03*
X15749968Y-63635000D03*
X15749968Y-69355000D03*
X16549968Y-60293750D03*
X21549968Y-59793750D03*
X22349968Y-63635000D03*
X22349968Y-69355000D03*
X187199968Y-120785000D03*
X187199968Y-126505000D03*
X187999968Y-117443750D03*
X192999968Y-116943750D03*
X193799968Y-120785000D03*
X193799968Y-126505000D03*
X206249968Y-120785000D03*
X206249968Y-126505000D03*
X207049968Y-117443750D03*
X212049968Y-116943750D03*
X212849968Y-120785000D03*
X212849968Y-126505000D03*
X244349968Y-120785000D03*
X244349968Y-126505000D03*
X245149968Y-117443750D03*
X250149968Y-116943750D03*
X250949968Y-120785000D03*
X250949968Y-126505000D03*
X72899968Y-82685000D03*
X72899968Y-88405000D03*
X73699968Y-79343750D03*
X78699968Y-78843750D03*
X79499968Y-82685000D03*
X79499968Y-88405000D03*
X34799968Y-88405000D03*
X35599968Y-79343750D03*
X40599968Y-78843750D03*
X41399968Y-82685000D03*
X41399968Y-88405000D03*
X72899968Y-101735000D03*
X72899968Y-107455000D03*
X73699968Y-98393750D03*
X78699968Y-97893750D03*
X79499968Y-101735000D03*
X79499968Y-107455000D03*
D14*
X144779967Y-104298749D03*
D15*
X144779968Y-106838750D03*
X144779968Y-109378750D03*
X144779968Y-111918750D03*
X144779968Y-114458750D03*
X144779968Y-116998750D03*
X144779968Y-119538750D03*
X144779968Y-122078750D03*
X144779968Y-124618750D03*
X144779968Y-127158750D03*
X144779968Y-129698750D03*
X144779968Y-132238750D03*
X160019968Y-132238750D03*
X160019968Y-129698750D03*
X160019968Y-127158750D03*
X160019968Y-124618750D03*
X160019968Y-122078750D03*
X160019968Y-119538750D03*
X160019968Y-116998750D03*
X160019968Y-114458750D03*
X160019968Y-111918750D03*
X160019968Y-109378750D03*
X160019968Y-106838750D03*
X160019968Y-104298750D03*
D12*
X206249968Y-63635000D03*
X206249968Y-69355000D03*
X207049968Y-60293750D03*
X212049968Y-59793750D03*
X212849968Y-63635000D03*
X212849968Y-69355000D03*
X206249968Y-82685000D03*
X206249968Y-88405000D03*
X207049968Y-79343750D03*
X212049968Y-78843750D03*
X212849968Y-82685000D03*
X212849968Y-88405000D03*
X282450240Y-63635054D03*
X282450240Y-69355054D03*
X283250240Y-60293804D03*
X288250240Y-59793804D03*
X289050240Y-63635054D03*
X289050240Y-69355054D03*
X91949968Y-139835000D03*
X91949968Y-145555000D03*
X92749968Y-136493750D03*
X97749968Y-135993750D03*
X98549968Y-139835000D03*
X98549968Y-145555000D03*
X225299968Y-82685000D03*
X225299968Y-88405000D03*
X226099968Y-79343750D03*
X231099968Y-78843750D03*
X231899968Y-82685000D03*
X231899968Y-88405000D03*
X91949968Y-120785000D03*
X91949968Y-126505000D03*
X92749968Y-117443750D03*
X97749968Y-116943750D03*
X98549968Y-120785000D03*
X98549968Y-126505000D03*
X72899968Y-139835000D03*
X72899968Y-145555000D03*
X73699968Y-136493750D03*
X78699968Y-135993750D03*
X79499968Y-139835000D03*
X79499968Y-145555000D03*
X110999968Y-120785000D03*
X110999968Y-126505000D03*
X111799968Y-117443750D03*
X116799968Y-116943750D03*
X117599968Y-120785000D03*
X117599968Y-126505000D03*
X225299968Y-120785000D03*
X225299968Y-126505000D03*
X226099968Y-117443750D03*
X231099968Y-116943750D03*
X231899968Y-120785000D03*
X231899968Y-126505000D03*
X34799968Y-120785000D03*
X34799968Y-126505000D03*
X35599968Y-117443750D03*
X40599968Y-116943750D03*
X41399968Y-120785000D03*
X41399968Y-126505000D03*
X282449968Y-101735000D03*
X282449968Y-107455000D03*
X283249968Y-98393750D03*
X288249968Y-97893750D03*
X289049968Y-101735000D03*
X289049968Y-107455000D03*
X34799968Y-139835000D03*
X34799968Y-145555000D03*
X35599968Y-136493750D03*
X40599968Y-135993750D03*
X41399968Y-139835000D03*
X41399968Y-145555000D03*
X15749968Y-101735000D03*
X15749968Y-107455000D03*
X16549968Y-98393750D03*
X21549968Y-97893750D03*
X22349968Y-101735000D03*
X22349968Y-107455000D03*
X225299968Y-101735000D03*
X225299968Y-107455000D03*
X226099968Y-98393750D03*
X231099968Y-97893750D03*
X231899968Y-101735000D03*
X231899968Y-107455000D03*
X206249968Y-101735000D03*
X206249968Y-107455000D03*
X207049968Y-98393750D03*
X212049968Y-97893750D03*
X212849968Y-101735000D03*
X212849968Y-107455000D03*
X53849968Y-82685000D03*
X53849968Y-88405000D03*
X54649968Y-79343750D03*
X59649968Y-78843750D03*
X60449968Y-82685000D03*
X60449968Y-88405000D03*
X225299968Y-139835000D03*
X225299968Y-145555000D03*
X226099968Y-136493750D03*
X231099968Y-135993750D03*
X231899968Y-139835000D03*
X231899968Y-145555000D03*
X263399968Y-120785000D03*
X263399968Y-126505000D03*
X264199968Y-117443750D03*
X269199968Y-116943750D03*
X269999968Y-120785000D03*
X269999968Y-126505000D03*
X72899968Y-120785000D03*
X72899968Y-126505000D03*
X73699968Y-117443750D03*
X78699968Y-116943750D03*
X79499968Y-120785000D03*
X79499968Y-126505000D03*
X15749968Y-82685000D03*
X15749968Y-88405000D03*
X16549968Y-79343750D03*
X21549968Y-78843750D03*
X22349968Y-82685000D03*
X22349968Y-88405000D03*
D16*
X30056217Y-71018749D03*
X30056217Y-76618749D03*
D17*
X26181217Y-72318749D03*
X26181217Y-73318749D03*
X26181217Y-74318749D03*
X26181217Y-75318749D03*
M02*
