G04 #@! TF.GenerationSoftware,KiCad,Pcbnew,(6.99.0-566-g22ff66f142)*
G04 #@! TF.CreationDate,2022-04-28T17:10:11+03:00*
G04 #@! TF.ProjectId,lumberjerk,6c756d62-6572-46a6-9572-6b2e6b696361,1.2*
G04 #@! TF.SameCoordinates,Original*
G04 #@! TF.FileFunction,Legend,Top*
G04 #@! TF.FilePolarity,Positive*
%FSLAX46Y46*%
G04 Gerber Fmt 4.6, Leading zero omitted, Abs format (unit mm)*
G04 Created by KiCad (PCBNEW (6.99.0-566-g22ff66f142)) date 2022-04-28 17:10:11*
%MOMM*%
%LPD*%
G01*
G04 APERTURE LIST*
%ADD10C,0.120000*%
%ADD11C,0.150000*%
%ADD12R,1.600000X1.600000*%
%ADD13C,1.600000*%
G04 APERTURE END LIST*
G36*
X145889075Y-85352803D02*
G01*
X145937230Y-85371966D01*
X146004436Y-85402741D01*
X146084605Y-85442414D01*
X146125051Y-85463374D01*
X146194197Y-85499750D01*
X146291779Y-85551129D01*
X146415881Y-85616501D01*
X146564587Y-85694855D01*
X146735983Y-85785181D01*
X146928152Y-85886469D01*
X147139178Y-85997708D01*
X147367146Y-86117889D01*
X147610141Y-86246000D01*
X147866246Y-86381031D01*
X148133547Y-86521973D01*
X148410127Y-86667815D01*
X148694071Y-86817546D01*
X148983463Y-86970156D01*
X149276388Y-87124636D01*
X149570930Y-87279974D01*
X149865174Y-87435160D01*
X150157203Y-87589185D01*
X150445102Y-87741037D01*
X150726956Y-87889707D01*
X151000849Y-88034184D01*
X151264865Y-88173458D01*
X151517089Y-88306518D01*
X151755604Y-88432355D01*
X151978497Y-88549957D01*
X152183850Y-88658316D01*
X152369748Y-88756419D01*
X152534276Y-88843258D01*
X152675518Y-88917822D01*
X152791558Y-88979100D01*
X152880481Y-89026082D01*
X152940371Y-89057758D01*
X152951369Y-89063583D01*
X153068450Y-89126088D01*
X153177749Y-89185291D01*
X153274540Y-89238564D01*
X153354097Y-89283281D01*
X153411693Y-89316814D01*
X153442603Y-89336538D01*
X153442953Y-89336801D01*
X153492410Y-89383916D01*
X153549644Y-89453072D01*
X153607452Y-89534041D01*
X153658633Y-89616597D01*
X153695984Y-89690513D01*
X153701238Y-89703563D01*
X153714152Y-89741211D01*
X153722475Y-89778400D01*
X153726565Y-89822532D01*
X153726782Y-89881008D01*
X153723485Y-89961227D01*
X153718162Y-90052430D01*
X153709704Y-90169517D01*
X153699142Y-90265297D01*
X153684146Y-90353216D01*
X153662384Y-90446722D01*
X153631525Y-90559259D01*
X153628410Y-90570127D01*
X153603023Y-90661028D01*
X153582271Y-90740261D01*
X153567744Y-90801353D01*
X153561030Y-90837834D01*
X153561016Y-90844611D01*
X153574155Y-90845873D01*
X153601676Y-90815770D01*
X153642979Y-90755200D01*
X153697464Y-90665065D01*
X153764530Y-90546265D01*
X153785721Y-90507545D01*
X153843625Y-90397647D01*
X153885248Y-90309505D01*
X153913902Y-90235183D01*
X153932898Y-90166742D01*
X153937839Y-90142909D01*
X153954465Y-90059775D01*
X153968414Y-90004662D01*
X153982914Y-89970512D01*
X154001189Y-89950263D01*
X154026465Y-89936858D01*
X154033214Y-89934154D01*
X154064330Y-89927608D01*
X154123761Y-89919738D01*
X154204301Y-89911149D01*
X154298741Y-89902445D01*
X154399876Y-89894231D01*
X154500498Y-89887111D01*
X154593400Y-89881690D01*
X154671376Y-89878573D01*
X154701714Y-89878071D01*
X154757465Y-89873556D01*
X154784360Y-89856904D01*
X154785359Y-89822397D01*
X154763423Y-89764317D01*
X154762116Y-89761434D01*
X154741565Y-89709012D01*
X154729764Y-89655827D01*
X154724889Y-89589755D01*
X154724838Y-89513708D01*
X154727732Y-89436734D01*
X154733193Y-89369253D01*
X154740230Y-89322208D01*
X154743135Y-89311899D01*
X154752578Y-89291735D01*
X154764098Y-89288296D01*
X154783292Y-89305110D01*
X154815761Y-89345706D01*
X154833129Y-89368612D01*
X154885862Y-89432298D01*
X154945453Y-89495296D01*
X154986531Y-89533153D01*
X155050633Y-89583663D01*
X155137925Y-89648110D01*
X155241373Y-89721664D01*
X155353946Y-89799495D01*
X155468611Y-89876773D01*
X155578336Y-89948669D01*
X155676088Y-90010354D01*
X155719877Y-90036805D01*
X155829684Y-90106744D01*
X155914855Y-90174076D01*
X155984565Y-90247249D01*
X156047989Y-90334711D01*
X156054605Y-90344985D01*
X156070620Y-90370178D01*
X156075243Y-90386706D01*
X156063187Y-90399794D01*
X156029162Y-90414670D01*
X155967879Y-90436559D01*
X155958610Y-90439846D01*
X155951875Y-90453090D01*
X155973402Y-90479974D01*
X156003078Y-90505705D01*
X156134423Y-90620182D01*
X156233421Y-90724341D01*
X156301248Y-90819779D01*
X156339077Y-90908092D01*
X156348534Y-90975525D01*
X156348708Y-91032161D01*
X156148603Y-90962373D01*
X155998253Y-90916969D01*
X155865294Y-90894147D01*
X155741582Y-90894756D01*
X155618972Y-90919643D01*
X155489321Y-90969653D01*
X155344484Y-91045634D01*
X155343736Y-91046065D01*
X155165441Y-91160614D01*
X155005791Y-91289634D01*
X154861212Y-91437264D01*
X154728129Y-91607644D01*
X154602967Y-91804914D01*
X154482152Y-92033212D01*
X154470481Y-92057265D01*
X154341400Y-92355711D01*
X154227618Y-92682186D01*
X154130550Y-93031968D01*
X154051611Y-93400332D01*
X154028354Y-93533828D01*
X154007539Y-93659146D01*
X153991017Y-93751787D01*
X153977581Y-93814221D01*
X153966024Y-93848920D01*
X153955139Y-93858353D01*
X153943722Y-93844990D01*
X153930564Y-93811301D01*
X153915815Y-93764247D01*
X153836229Y-93447272D01*
X153783184Y-93110239D01*
X153758387Y-92800256D01*
X153753128Y-92709698D01*
X153746991Y-92637321D01*
X153740555Y-92588201D01*
X153734396Y-92567413D01*
X153732012Y-92568386D01*
X153723628Y-92594959D01*
X153711106Y-92648956D01*
X153696094Y-92722699D01*
X153680239Y-92808510D01*
X153679157Y-92814675D01*
X153660128Y-92938662D01*
X153646866Y-93063380D01*
X153639565Y-93192706D01*
X153638415Y-93330518D01*
X153643609Y-93480692D01*
X153655340Y-93647106D01*
X153673798Y-93833637D01*
X153699177Y-94044162D01*
X153731668Y-94282557D01*
X153762204Y-94491229D01*
X153779609Y-94609629D01*
X153794600Y-94715885D01*
X153806537Y-94805094D01*
X153814781Y-94872355D01*
X153818690Y-94912769D01*
X153818514Y-94922449D01*
X153805854Y-94911751D01*
X153776173Y-94877405D01*
X153733562Y-94824397D01*
X153682112Y-94757714D01*
X153667644Y-94738555D01*
X153408169Y-94365928D01*
X153170314Y-93967579D01*
X153044228Y-93728262D01*
X153002300Y-93646258D01*
X152969199Y-93591893D01*
X152937493Y-93561163D01*
X152899754Y-93550062D01*
X152848552Y-93554587D01*
X152776457Y-93570733D01*
X152759573Y-93574836D01*
X152518765Y-93621804D01*
X152296557Y-93640492D01*
X152089671Y-93630671D01*
X151894830Y-93592112D01*
X151708754Y-93524585D01*
X151651635Y-93497380D01*
X151549746Y-93439797D01*
X151447446Y-93370914D01*
X151351660Y-93296395D01*
X151269315Y-93221904D01*
X151207335Y-93153104D01*
X151179875Y-93111553D01*
X151164378Y-93077258D01*
X151170004Y-93061644D01*
X151194642Y-93053899D01*
X151223398Y-93048087D01*
X151281925Y-93036804D01*
X151365009Y-93021024D01*
X151467435Y-93001719D01*
X151583988Y-92979863D01*
X151709455Y-92956427D01*
X151838619Y-92932384D01*
X151966268Y-92908707D01*
X152087185Y-92886369D01*
X152196157Y-92866342D01*
X152287968Y-92849599D01*
X152346607Y-92839035D01*
X152456295Y-92817933D01*
X152534940Y-92798540D01*
X152586881Y-92778887D01*
X152616457Y-92757003D01*
X152628009Y-92730919D01*
X152627974Y-92711340D01*
X152616833Y-92674728D01*
X152587131Y-92659505D01*
X152568946Y-92657076D01*
X152537251Y-92659215D01*
X152476135Y-92667829D01*
X152390971Y-92681992D01*
X152287132Y-92700774D01*
X152169991Y-92723247D01*
X152070907Y-92743137D01*
X151828150Y-92789423D01*
X151613523Y-92822550D01*
X151422141Y-92842610D01*
X151249118Y-92849692D01*
X151089570Y-92843890D01*
X150938611Y-92825293D01*
X150791357Y-92793993D01*
X150701299Y-92768712D01*
X150565122Y-92719292D01*
X150421007Y-92653505D01*
X150284210Y-92578863D01*
X150187169Y-92515576D01*
X150111348Y-92456300D01*
X150029324Y-92384457D01*
X149945419Y-92304709D01*
X149863953Y-92221716D01*
X149789246Y-92140143D01*
X149725618Y-92064650D01*
X149677390Y-91999901D01*
X149648882Y-91950557D01*
X149642965Y-91928313D01*
X149645807Y-91923267D01*
X149655850Y-91918927D01*
X149675373Y-91915262D01*
X149706654Y-91912242D01*
X149751972Y-91909835D01*
X149813604Y-91908011D01*
X149893829Y-91906739D01*
X149994926Y-91905987D01*
X150119172Y-91905725D01*
X150268846Y-91905921D01*
X150446225Y-91906545D01*
X150653590Y-91907566D01*
X150893216Y-91908953D01*
X151012989Y-91909693D01*
X151274644Y-91911308D01*
X151502917Y-91912583D01*
X151700000Y-91913409D01*
X151868085Y-91913680D01*
X152009363Y-91913287D01*
X152126028Y-91912123D01*
X152220269Y-91910081D01*
X152294279Y-91907053D01*
X152350251Y-91902931D01*
X152390374Y-91897608D01*
X152416842Y-91890976D01*
X152431847Y-91882929D01*
X152437579Y-91873357D01*
X152436231Y-91862154D01*
X152429994Y-91849212D01*
X152424724Y-91840415D01*
X152419256Y-91834021D01*
X152409553Y-91828487D01*
X152393062Y-91823724D01*
X152367231Y-91819640D01*
X152329510Y-91816147D01*
X152277347Y-91813154D01*
X152208189Y-91810571D01*
X152119485Y-91808308D01*
X152008684Y-91806275D01*
X151873234Y-91804381D01*
X151710583Y-91802538D01*
X151518180Y-91800654D01*
X151293473Y-91798639D01*
X151224093Y-91798037D01*
X150988835Y-91795956D01*
X150786255Y-91794012D01*
X150613459Y-91792103D01*
X150467554Y-91790126D01*
X150345644Y-91787978D01*
X150244835Y-91785557D01*
X150162233Y-91782761D01*
X150094944Y-91779488D01*
X150040072Y-91775634D01*
X149994723Y-91771098D01*
X149956003Y-91765777D01*
X149921018Y-91759568D01*
X149886872Y-91752370D01*
X149878160Y-91750411D01*
X149720147Y-91711246D01*
X149583752Y-91669104D01*
X149455078Y-91619021D01*
X149320224Y-91556034D01*
X149287223Y-91539379D01*
X149060377Y-91406738D01*
X148853479Y-91249828D01*
X148664301Y-91066395D01*
X148490612Y-90854187D01*
X148330185Y-90610951D01*
X148277094Y-90518680D01*
X148247563Y-90457031D01*
X148224574Y-90393112D01*
X148209700Y-90334371D01*
X148204514Y-90288254D01*
X148210592Y-90262209D01*
X148222389Y-90259906D01*
X148243931Y-90264897D01*
X148297597Y-90276301D01*
X148380738Y-90293584D01*
X148490703Y-90316213D01*
X148624845Y-90343655D01*
X148780514Y-90375377D01*
X148955059Y-90410846D01*
X149145833Y-90449529D01*
X149350185Y-90490892D01*
X149565466Y-90534403D01*
X149789027Y-90579527D01*
X150018219Y-90625733D01*
X150250392Y-90672487D01*
X150482897Y-90719256D01*
X150713085Y-90765507D01*
X150938305Y-90810706D01*
X151155910Y-90854320D01*
X151363249Y-90895817D01*
X151557673Y-90934663D01*
X151736534Y-90970326D01*
X151897180Y-91002271D01*
X152036964Y-91029966D01*
X152153236Y-91052878D01*
X152243347Y-91070473D01*
X152304646Y-91082219D01*
X152334486Y-91087582D01*
X152336861Y-91087867D01*
X152357700Y-91073885D01*
X152364159Y-91041409D01*
X152355860Y-91004650D01*
X152339641Y-90982744D01*
X152318594Y-90975946D01*
X152265443Y-90962710D01*
X152182954Y-90943634D01*
X152073896Y-90919315D01*
X151941034Y-90890352D01*
X151787135Y-90857341D01*
X151614967Y-90820882D01*
X151427298Y-90781572D01*
X151226893Y-90740009D01*
X151016519Y-90696790D01*
X151010054Y-90695468D01*
X150681943Y-90628331D01*
X150386666Y-90567754D01*
X150122179Y-90513287D01*
X149886439Y-90464483D01*
X149677401Y-90420892D01*
X149493022Y-90382065D01*
X149331259Y-90347553D01*
X149190068Y-90316908D01*
X149067406Y-90289680D01*
X148961229Y-90265421D01*
X148869493Y-90243681D01*
X148790156Y-90224012D01*
X148721173Y-90205965D01*
X148660501Y-90189090D01*
X148606096Y-90172939D01*
X148555916Y-90157063D01*
X148549058Y-90154819D01*
X148246415Y-90038321D01*
X147967645Y-89895693D01*
X147713251Y-89727431D01*
X147483737Y-89534032D01*
X147279606Y-89315990D01*
X147101359Y-89073803D01*
X146949501Y-88807966D01*
X146824534Y-88518975D01*
X146789677Y-88419800D01*
X146761727Y-88329331D01*
X146736558Y-88236015D01*
X146715594Y-88146677D01*
X146700255Y-88068144D01*
X146691964Y-88007242D01*
X146692141Y-87970797D01*
X146694886Y-87964611D01*
X146712020Y-87970454D01*
X146760121Y-87989672D01*
X146837497Y-88021543D01*
X146942452Y-88065347D01*
X147073291Y-88120363D01*
X147228321Y-88185872D01*
X147405847Y-88261152D01*
X147604174Y-88345483D01*
X147821608Y-88438145D01*
X148056454Y-88538416D01*
X148307018Y-88645576D01*
X148571605Y-88758905D01*
X148848521Y-88877682D01*
X149136071Y-89001186D01*
X149432561Y-89128697D01*
X149450100Y-89136245D01*
X149747162Y-89264001D01*
X150035449Y-89387799D01*
X150313263Y-89506919D01*
X150578903Y-89620638D01*
X150830670Y-89728235D01*
X151066864Y-89828988D01*
X151285787Y-89922177D01*
X151485738Y-90007078D01*
X151665018Y-90082971D01*
X151821927Y-90149134D01*
X151954766Y-90204846D01*
X152061835Y-90249384D01*
X152141436Y-90282028D01*
X152191867Y-90302055D01*
X152211431Y-90308745D01*
X152211578Y-90308711D01*
X152213365Y-90291223D01*
X152185043Y-90259128D01*
X152128352Y-90213669D01*
X152045030Y-90156087D01*
X151936817Y-90087627D01*
X151805452Y-90009531D01*
X151741845Y-89973049D01*
X151633323Y-89911759D01*
X151527824Y-89852791D01*
X151431815Y-89799714D01*
X151351764Y-89756096D01*
X151294138Y-89725508D01*
X151282011Y-89719316D01*
X151241027Y-89699834D01*
X151169964Y-89667346D01*
X151071393Y-89622974D01*
X150947883Y-89567841D01*
X150802003Y-89503070D01*
X150636323Y-89429783D01*
X150453413Y-89349104D01*
X150255842Y-89262155D01*
X150046180Y-89170059D01*
X149826997Y-89073938D01*
X149600862Y-88974916D01*
X149370344Y-88874116D01*
X149138014Y-88772659D01*
X148906441Y-88671669D01*
X148678195Y-88572269D01*
X148455844Y-88475581D01*
X148241960Y-88382728D01*
X148039111Y-88294833D01*
X147849867Y-88213018D01*
X147676797Y-88138407D01*
X147522472Y-88072123D01*
X147389461Y-88015287D01*
X147280333Y-87969023D01*
X147197658Y-87934454D01*
X147188344Y-87930612D01*
X147009476Y-87854455D01*
X146859123Y-87784186D01*
X146731483Y-87716313D01*
X146620756Y-87647345D01*
X146521139Y-87573791D01*
X146426832Y-87492159D01*
X146371642Y-87439101D01*
X146184233Y-87230803D01*
X146030655Y-87011646D01*
X145910765Y-86781315D01*
X145824417Y-86539494D01*
X145771467Y-86285868D01*
X145753670Y-86089688D01*
X145752141Y-85973714D01*
X145756672Y-85853153D01*
X145766408Y-85733646D01*
X145780495Y-85620831D01*
X145798079Y-85520350D01*
X145818304Y-85437840D01*
X145840317Y-85378943D01*
X145863262Y-85349298D01*
X145866061Y-85347965D01*
X145889075Y-85352803D01*
G37*
D10*
X137187468Y-112918750D02*
X137187468Y-110918750D01*
X137187468Y-112918750D02*
X133287468Y-112918750D01*
X137187468Y-110918750D02*
X133287468Y-110918750D01*
X164512468Y-139831250D02*
X162512468Y-139831250D01*
X164512468Y-139831250D02*
X164512468Y-143731250D01*
X162512468Y-139831250D02*
X162512468Y-143731250D01*
X167612468Y-110918750D02*
X167612468Y-112918750D01*
X167612468Y-110918750D02*
X171512468Y-110918750D01*
X167612468Y-112918750D02*
X171512468Y-112918750D01*
X148637468Y-139831250D02*
X146637468Y-139831250D01*
X148637468Y-139831250D02*
X148637468Y-143731250D01*
X146637468Y-139831250D02*
X146637468Y-143731250D01*
X137187468Y-74818750D02*
X137187468Y-72818750D01*
X137187468Y-74818750D02*
X133287468Y-74818750D01*
X137187468Y-72818750D02*
X133287468Y-72818750D01*
X167612468Y-120443750D02*
X167612468Y-122443750D01*
X167612468Y-120443750D02*
X171512468Y-120443750D01*
X167612468Y-122443750D02*
X171512468Y-122443750D01*
X167612468Y-133143750D02*
X167612468Y-135143750D01*
X167612468Y-133143750D02*
X171512468Y-133143750D01*
X167612468Y-135143750D02*
X171512468Y-135143750D01*
X167612468Y-75993750D02*
X167612468Y-77993750D01*
X167612468Y-75993750D02*
X171512468Y-75993750D01*
X167612468Y-77993750D02*
X171512468Y-77993750D01*
X167612468Y-123618750D02*
X167612468Y-125618750D01*
X167612468Y-123618750D02*
X171512468Y-123618750D01*
X167612468Y-125618750D02*
X171512468Y-125618750D01*
X145462468Y-139831250D02*
X143462468Y-139831250D01*
X145462468Y-139831250D02*
X145462468Y-143731250D01*
X143462468Y-139831250D02*
X143462468Y-143731250D01*
X167612468Y-136318750D02*
X167612468Y-138318750D01*
X167612468Y-136318750D02*
X171512468Y-136318750D01*
X167612468Y-138318750D02*
X171512468Y-138318750D01*
X137187468Y-109743750D02*
X137187468Y-107743750D01*
X137187468Y-109743750D02*
X133287468Y-109743750D01*
X137187468Y-107743750D02*
X133287468Y-107743750D01*
X137187468Y-116093750D02*
X137187468Y-114093750D01*
X137187468Y-116093750D02*
X133287468Y-116093750D01*
X137187468Y-114093750D02*
X133287468Y-114093750D01*
X137187468Y-87518750D02*
X137187468Y-85518750D01*
X137187468Y-87518750D02*
X133287468Y-87518750D01*
X137187468Y-85518750D02*
X133287468Y-85518750D01*
X167612468Y-85518750D02*
X167612468Y-87518750D01*
X167612468Y-85518750D02*
X171512468Y-85518750D01*
X167612468Y-87518750D02*
X171512468Y-87518750D01*
X137187468Y-68468750D02*
X137187468Y-66468750D01*
X137187468Y-68468750D02*
X133287468Y-68468750D01*
X137187468Y-66468750D02*
X133287468Y-66468750D01*
X170862468Y-139831250D02*
X168862468Y-139831250D01*
X170862468Y-139831250D02*
X170862468Y-143731250D01*
X168862468Y-139831250D02*
X168862468Y-143731250D01*
X139112468Y-139831250D02*
X137112468Y-139831250D01*
X139112468Y-139831250D02*
X139112468Y-143731250D01*
X137112468Y-139831250D02*
X137112468Y-143731250D01*
X167612468Y-69643750D02*
X167612468Y-71643750D01*
X167612468Y-69643750D02*
X171512468Y-69643750D01*
X167612468Y-71643750D02*
X171512468Y-71643750D01*
X167612468Y-72818750D02*
X167612468Y-74818750D01*
X167612468Y-72818750D02*
X171512468Y-72818750D01*
X167612468Y-74818750D02*
X171512468Y-74818750D01*
X137187468Y-125618750D02*
X137187468Y-123618750D01*
X137187468Y-125618750D02*
X133287468Y-125618750D01*
X137187468Y-123618750D02*
X133287468Y-123618750D01*
X167612468Y-107743750D02*
X167612468Y-109743750D01*
X167612468Y-107743750D02*
X171512468Y-107743750D01*
X167612468Y-109743750D02*
X171512468Y-109743750D01*
X167612468Y-91868750D02*
X167612468Y-93868750D01*
X167612468Y-91868750D02*
X171512468Y-91868750D01*
X167612468Y-93868750D02*
X171512468Y-93868750D01*
X137187468Y-138318750D02*
X137187468Y-136318750D01*
X137187468Y-138318750D02*
X133287468Y-138318750D01*
X137187468Y-136318750D02*
X133287468Y-136318750D01*
X137187468Y-81168750D02*
X137187468Y-79168750D01*
X137187468Y-81168750D02*
X133287468Y-81168750D01*
X137187468Y-79168750D02*
X133287468Y-79168750D01*
X167612468Y-117268750D02*
X167612468Y-119268750D01*
X167612468Y-117268750D02*
X171512468Y-117268750D01*
X167612468Y-119268750D02*
X171512468Y-119268750D01*
X137187468Y-135143750D02*
X137187468Y-133143750D01*
X137187468Y-135143750D02*
X133287468Y-135143750D01*
X137187468Y-133143750D02*
X133287468Y-133143750D01*
X167612468Y-66468750D02*
X167612468Y-68468750D01*
X167612468Y-66468750D02*
X171512468Y-66468750D01*
X167612468Y-68468750D02*
X171512468Y-68468750D01*
X167612468Y-126793750D02*
X167612468Y-128793750D01*
X167612468Y-126793750D02*
X171512468Y-126793750D01*
X167612468Y-128793750D02*
X171512468Y-128793750D01*
X137187468Y-90693750D02*
X137187468Y-88693750D01*
X137187468Y-90693750D02*
X133287468Y-90693750D01*
X137187468Y-88693750D02*
X133287468Y-88693750D01*
X167612468Y-79168750D02*
X167612468Y-81168750D01*
X167612468Y-79168750D02*
X171512468Y-79168750D01*
X167612468Y-81168750D02*
X171512468Y-81168750D01*
X167687468Y-139831250D02*
X165687468Y-139831250D01*
X167687468Y-139831250D02*
X167687468Y-143731250D01*
X165687468Y-139831250D02*
X165687468Y-143731250D01*
X154987468Y-139831250D02*
X152987468Y-139831250D01*
X154987468Y-139831250D02*
X154987468Y-143731250D01*
X152987468Y-139831250D02*
X152987468Y-143731250D01*
X167612468Y-104568750D02*
X167612468Y-106568750D01*
X167612468Y-104568750D02*
X171512468Y-104568750D01*
X167612468Y-106568750D02*
X171512468Y-106568750D01*
X167612468Y-98218750D02*
X167612468Y-100218750D01*
X167612468Y-98218750D02*
X171512468Y-98218750D01*
X167612468Y-100218750D02*
X171512468Y-100218750D01*
X137187468Y-93868750D02*
X137187468Y-91868750D01*
X137187468Y-93868750D02*
X133287468Y-93868750D01*
X137187468Y-91868750D02*
X133287468Y-91868750D01*
X167612468Y-129968750D02*
X167612468Y-131968750D01*
X167612468Y-129968750D02*
X171512468Y-129968750D01*
X167612468Y-131968750D02*
X171512468Y-131968750D01*
X137187468Y-84343750D02*
X137187468Y-82343750D01*
X137187468Y-84343750D02*
X133287468Y-84343750D01*
X137187468Y-82343750D02*
X133287468Y-82343750D01*
X137187468Y-65293750D02*
X137187468Y-63293750D01*
X137187468Y-65293750D02*
X133287468Y-65293750D01*
X137187468Y-63293750D02*
X133287468Y-63293750D01*
X167612468Y-82343750D02*
X167612468Y-84343750D01*
X167612468Y-82343750D02*
X171512468Y-82343750D01*
X167612468Y-84343750D02*
X171512468Y-84343750D01*
X167612468Y-88693750D02*
X167612468Y-90693750D01*
X167612468Y-88693750D02*
X171512468Y-88693750D01*
X167612468Y-90693750D02*
X171512468Y-90693750D01*
X137187468Y-77993750D02*
X137187468Y-75993750D01*
X137187468Y-77993750D02*
X133287468Y-77993750D01*
X137187468Y-75993750D02*
X133287468Y-75993750D01*
D11*
X149399968Y-64656250D02*
X150399968Y-64656250D01*
X149399968Y-67056250D02*
X149399968Y-64656250D01*
X154399968Y-64656250D02*
X155399968Y-64656250D01*
X154399968Y-68856250D02*
X150399968Y-68856250D01*
X155399968Y-64656250D02*
X155399968Y-67056250D01*
D10*
X151812468Y-139831250D02*
X149812468Y-139831250D01*
X151812468Y-139831250D02*
X151812468Y-143731250D01*
X149812468Y-139831250D02*
X149812468Y-143731250D01*
X135937468Y-139831250D02*
X133937468Y-139831250D01*
X135937468Y-139831250D02*
X135937468Y-143731250D01*
X133937468Y-139831250D02*
X133937468Y-143731250D01*
X137187468Y-131968750D02*
X137187468Y-129968750D01*
X137187468Y-131968750D02*
X133287468Y-131968750D01*
X137187468Y-129968750D02*
X133287468Y-129968750D01*
X137187468Y-122443750D02*
X137187468Y-120443750D01*
X137187468Y-122443750D02*
X133287468Y-122443750D01*
X137187468Y-120443750D02*
X133287468Y-120443750D01*
X137187468Y-97043750D02*
X137187468Y-95043750D01*
X137187468Y-97043750D02*
X133287468Y-97043750D01*
X137187468Y-95043750D02*
X133287468Y-95043750D01*
X158162468Y-139831250D02*
X156162468Y-139831250D01*
X158162468Y-139831250D02*
X158162468Y-143731250D01*
X156162468Y-139831250D02*
X156162468Y-143731250D01*
D11*
X156209968Y-100488750D02*
X156209968Y-103028750D01*
X148589968Y-100488750D02*
X156209968Y-100488750D01*
X161289968Y-103028750D02*
X161289968Y-133508750D01*
X156209968Y-103028750D02*
X161289968Y-103028750D01*
X148589968Y-103028750D02*
X148589968Y-100488750D01*
X143509968Y-103028750D02*
X148589968Y-103028750D01*
X143509968Y-103028750D02*
X143509968Y-133508750D01*
X161289968Y-133508750D02*
X143509968Y-133508750D01*
D10*
X167612468Y-114093750D02*
X167612468Y-116093750D01*
X167612468Y-114093750D02*
X171512468Y-114093750D01*
X167612468Y-116093750D02*
X171512468Y-116093750D01*
X167612468Y-63293750D02*
X167612468Y-65293750D01*
X167612468Y-63293750D02*
X171512468Y-63293750D01*
X167612468Y-65293750D02*
X171512468Y-65293750D01*
X167612468Y-95043750D02*
X167612468Y-97043750D01*
X167612468Y-95043750D02*
X171512468Y-95043750D01*
X167612468Y-97043750D02*
X171512468Y-97043750D01*
X142287468Y-139831250D02*
X140287468Y-139831250D01*
X142287468Y-139831250D02*
X142287468Y-143731250D01*
X140287468Y-139831250D02*
X140287468Y-143731250D01*
X161337468Y-139831250D02*
X159337468Y-139831250D01*
X161337468Y-139831250D02*
X161337468Y-143731250D01*
X159337468Y-139831250D02*
X159337468Y-143731250D01*
X167612468Y-101393750D02*
X167612468Y-103393750D01*
X167612468Y-101393750D02*
X171512468Y-101393750D01*
X167612468Y-103393750D02*
X171512468Y-103393750D01*
X137187468Y-119268750D02*
X137187468Y-117268750D01*
X137187468Y-119268750D02*
X133287468Y-119268750D01*
X137187468Y-117268750D02*
X133287468Y-117268750D01*
X137187468Y-106568750D02*
X137187468Y-104568750D01*
X137187468Y-106568750D02*
X133287468Y-106568750D01*
X137187468Y-104568750D02*
X133287468Y-104568750D01*
X137187468Y-128793750D02*
X137187468Y-126793750D01*
X137187468Y-128793750D02*
X133287468Y-128793750D01*
X137187468Y-126793750D02*
X133287468Y-126793750D01*
X137187468Y-100218750D02*
X137187468Y-98218750D01*
X137187468Y-100218750D02*
X133287468Y-100218750D01*
X137187468Y-98218750D02*
X133287468Y-98218750D01*
X137187468Y-103393750D02*
X137187468Y-101393750D01*
X137187468Y-103393750D02*
X133287468Y-103393750D01*
X137187468Y-101393750D02*
X133287468Y-101393750D01*
X137187468Y-71643750D02*
X137187468Y-69643750D01*
X137187468Y-71643750D02*
X133287468Y-71643750D01*
X137187468Y-69643750D02*
X133287468Y-69643750D01*
D12*
X144779967Y-104298749D03*
D13*
X144779968Y-106838750D03*
X144779968Y-109378750D03*
X144779968Y-111918750D03*
X144779968Y-114458750D03*
X144779968Y-116998750D03*
X144779968Y-119538750D03*
X144779968Y-122078750D03*
X144779968Y-124618750D03*
X144779968Y-127158750D03*
X144779968Y-129698750D03*
X144779968Y-132238750D03*
X160019968Y-132238750D03*
X160019968Y-129698750D03*
X160019968Y-127158750D03*
X160019968Y-124618750D03*
X160019968Y-122078750D03*
X160019968Y-119538750D03*
X160019968Y-116998750D03*
X160019968Y-114458750D03*
X160019968Y-111918750D03*
X160019968Y-109378750D03*
X160019968Y-106838750D03*
X160019968Y-104298750D03*
M02*
