G04 #@! TF.GenerationSoftware,KiCad,Pcbnew,(6.99.0-566-g22ff66f142)*
G04 #@! TF.CreationDate,2022-04-28T17:10:11+03:00*
G04 #@! TF.ProjectId,lumberjerk,6c756d62-6572-46a6-9572-6b2e6b696361,1.2*
G04 #@! TF.SameCoordinates,Original*
G04 #@! TF.FileFunction,Soldermask,Top*
G04 #@! TF.FilePolarity,Negative*
%FSLAX46Y46*%
G04 Gerber Fmt 4.6, Leading zero omitted, Abs format (unit mm)*
G04 Created by KiCad (PCBNEW (6.99.0-566-g22ff66f142)) date 2022-04-28 17:10:11*
%MOMM*%
%LPD*%
G01*
G04 APERTURE LIST*
G04 Aperture macros list*
%AMRoundRect*
0 Rectangle with rounded corners*
0 $1 Rounding radius*
0 $2 $3 $4 $5 $6 $7 $8 $9 X,Y pos of 4 corners*
0 Add a 4 corners polygon primitive as box body*
4,1,4,$2,$3,$4,$5,$6,$7,$8,$9,$2,$3,0*
0 Add four circle primitives for the rounded corners*
1,1,$1+$1,$2,$3*
1,1,$1+$1,$4,$5*
1,1,$1+$1,$6,$7*
1,1,$1+$1,$8,$9*
0 Add four rect primitives between the rounded corners*
20,1,$1+$1,$2,$3,$4,$5,0*
20,1,$1+$1,$4,$5,$6,$7,0*
20,1,$1+$1,$6,$7,$8,$9,0*
20,1,$1+$1,$8,$9,$2,$3,0*%
G04 Aperture macros list end*
%ADD10C,5.000000*%
%ADD11O,7.000000X2.500000*%
%ADD12R,0.900000X1.200000*%
%ADD13R,1.200000X0.900000*%
%ADD14C,2.250000*%
%ADD15R,3.000000X2.750000*%
%ADD16O,5.000000X2.500000*%
%ADD17R,1.200000X1.800000*%
%ADD18R,0.600000X1.550000*%
%ADD19R,1.600000X1.600000*%
%ADD20C,1.600000*%
%ADD21RoundRect,0.550000X0.000000X0.275000X0.000000X0.275000X0.000000X-0.275000X0.000000X-0.275000X0*%
%ADD22RoundRect,0.850000X0.000000X-0.500000X0.000000X-0.500000X0.000000X0.500000X0.000000X0.500000X0*%
G04 APERTURE END LIST*
G36*
X152047525Y-81667698D02*
G01*
X152242430Y-81670159D01*
X152427202Y-81674955D01*
X152595324Y-81682085D01*
X152740276Y-81691549D01*
X152844646Y-81701951D01*
X153376806Y-81784396D01*
X153891212Y-81897227D01*
X154389266Y-82040856D01*
X154872375Y-82215696D01*
X155341943Y-82422158D01*
X155407481Y-82454003D01*
X155563585Y-82531677D01*
X155697546Y-82600781D01*
X155818244Y-82666408D01*
X155934561Y-82733654D01*
X156055378Y-82807614D01*
X156189576Y-82893382D01*
X156304240Y-82968452D01*
X156734073Y-83272538D01*
X157138595Y-83600640D01*
X157517296Y-83951273D01*
X157869667Y-84322948D01*
X158195199Y-84714180D01*
X158493382Y-85123481D01*
X158763706Y-85549366D01*
X159005663Y-85990348D01*
X159218743Y-86444939D01*
X159402436Y-86911654D01*
X159556233Y-87389006D01*
X159679624Y-87875508D01*
X159772101Y-88369673D01*
X159833154Y-88870016D01*
X159862273Y-89375049D01*
X159858948Y-89883285D01*
X159822672Y-90393239D01*
X159752933Y-90903423D01*
X159649223Y-91412351D01*
X159511032Y-91918537D01*
X159443111Y-92128414D01*
X159258305Y-92619524D01*
X159043096Y-93093551D01*
X158798784Y-93549428D01*
X158526667Y-93986087D01*
X158228043Y-94402461D01*
X157904211Y-94797484D01*
X157556470Y-95170087D01*
X157186116Y-95519205D01*
X156794450Y-95843769D01*
X156382769Y-96142712D01*
X155952372Y-96414968D01*
X155504557Y-96659469D01*
X155040623Y-96875148D01*
X154561867Y-97060938D01*
X154069589Y-97215772D01*
X153565086Y-97338582D01*
X153049658Y-97428301D01*
X152983952Y-97437212D01*
X152454971Y-97488966D01*
X151922537Y-97506087D01*
X151394996Y-97488630D01*
X151300677Y-97481539D01*
X151212683Y-97473383D01*
X151140597Y-97465147D01*
X151094003Y-97457818D01*
X151092615Y-97457515D01*
X151056034Y-97448924D01*
X151045649Y-97443997D01*
X151064343Y-97441473D01*
X151114999Y-97440090D01*
X151133142Y-97439772D01*
X151192424Y-97437165D01*
X151276873Y-97431351D01*
X151376306Y-97423124D01*
X151480542Y-97413281D01*
X151506672Y-97410607D01*
X152007148Y-97341055D01*
X152496872Y-97238373D01*
X152974571Y-97103668D01*
X153438972Y-96938050D01*
X153888803Y-96742625D01*
X154322790Y-96518503D01*
X154739660Y-96266791D01*
X155138141Y-95988598D01*
X155516958Y-95685032D01*
X155874841Y-95357200D01*
X156210514Y-95006212D01*
X156522706Y-94633174D01*
X156810144Y-94239196D01*
X157071554Y-93825385D01*
X157305663Y-93392850D01*
X157511200Y-92942699D01*
X157686890Y-92476039D01*
X157831460Y-91993980D01*
X157860581Y-91879394D01*
X157911321Y-91661074D01*
X157953644Y-91451261D01*
X157989956Y-91236610D01*
X158022664Y-91003777D01*
X158032229Y-90927606D01*
X158045090Y-90793605D01*
X158054847Y-90631721D01*
X158061500Y-90449507D01*
X158065048Y-90254520D01*
X158065489Y-90054313D01*
X158062825Y-89856442D01*
X158057053Y-89668462D01*
X158048173Y-89497928D01*
X158036184Y-89352393D01*
X158032377Y-89318050D01*
X157954096Y-88800651D01*
X157843685Y-88298464D01*
X157700975Y-87811090D01*
X157525801Y-87338129D01*
X157317996Y-86879180D01*
X157077394Y-86433843D01*
X156803829Y-86001717D01*
X156497134Y-85582404D01*
X156458324Y-85533216D01*
X156360908Y-85416578D01*
X156241726Y-85283294D01*
X156106596Y-85139179D01*
X155961337Y-84990051D01*
X155811767Y-84841725D01*
X155663705Y-84700018D01*
X155522968Y-84570748D01*
X155395377Y-84459730D01*
X155334842Y-84410096D01*
X155043198Y-84189704D01*
X154732486Y-83977670D01*
X154412873Y-83780414D01*
X154094528Y-83604357D01*
X153921504Y-83517850D01*
X153467677Y-83318727D01*
X153001829Y-83151178D01*
X152521906Y-83014620D01*
X152025855Y-82908470D01*
X151511622Y-82832145D01*
X151501719Y-82830987D01*
X151412363Y-82823311D01*
X151293913Y-82817204D01*
X151152817Y-82812663D01*
X150995520Y-82809684D01*
X150828469Y-82808266D01*
X150658110Y-82808407D01*
X150490890Y-82810103D01*
X150333254Y-82813353D01*
X150191650Y-82818154D01*
X150072523Y-82824504D01*
X149989814Y-82831546D01*
X149475613Y-82905730D01*
X148973376Y-83013132D01*
X148484020Y-83153324D01*
X148008458Y-83325878D01*
X147547608Y-83530365D01*
X147102383Y-83766357D01*
X146673699Y-84033427D01*
X146262472Y-84331146D01*
X145869616Y-84659086D01*
X145654317Y-84859315D01*
X145565247Y-84945307D01*
X145499570Y-85008155D01*
X145455127Y-85049468D01*
X145429761Y-85070856D01*
X145421316Y-85073929D01*
X145427633Y-85060296D01*
X145446555Y-85031567D01*
X145471429Y-84995781D01*
X145706306Y-84681540D01*
X145970607Y-84366846D01*
X146258727Y-84057450D01*
X146565063Y-83759106D01*
X146884009Y-83477563D01*
X147184371Y-83237865D01*
X147606634Y-82940305D01*
X148048911Y-82671683D01*
X148509720Y-82432590D01*
X148987581Y-82223618D01*
X149481011Y-82045359D01*
X149988531Y-81898403D01*
X150508659Y-81783342D01*
X151030360Y-81701951D01*
X151149169Y-81690407D01*
X151296956Y-81681196D01*
X151467204Y-81674320D01*
X151653394Y-81669779D01*
X151849007Y-81667571D01*
X152047525Y-81667698D01*
G37*
D10*
X128587608Y-59531300D03*
X176212648Y-59531300D03*
X128587608Y-144661059D03*
X176212648Y-144661059D03*
D11*
X11905967Y-111893749D03*
X292893717Y-111893749D03*
D12*
X136587467Y-111918749D03*
X133287467Y-111918749D03*
D13*
X163512467Y-140431249D03*
X163512467Y-143731249D03*
D14*
X196724968Y-139835000D03*
X196724968Y-145555000D03*
X197524968Y-136493750D03*
X202524968Y-135993750D03*
X203324968Y-139835000D03*
X203324968Y-145555000D03*
D12*
X168212467Y-111918749D03*
X171512467Y-111918749D03*
D13*
X147637467Y-140431249D03*
X147637467Y-143731249D03*
D12*
X136587467Y-73818749D03*
X133287467Y-73818749D03*
D14*
X110999968Y-63635000D03*
X110999968Y-69355000D03*
X111799968Y-60293750D03*
X116799968Y-59793750D03*
X117599968Y-63635000D03*
X117599968Y-69355000D03*
X91949968Y-63635000D03*
X91949968Y-69355000D03*
X92749968Y-60293750D03*
X97749968Y-59793750D03*
X98549968Y-63635000D03*
X98549968Y-69355000D03*
D12*
X168212467Y-121443749D03*
X171512467Y-121443749D03*
X168212467Y-134143749D03*
X171512467Y-134143749D03*
D14*
X34799968Y-101735000D03*
X34799968Y-107455000D03*
X35599968Y-98393750D03*
X40599968Y-97893750D03*
X41399968Y-101735000D03*
X41399968Y-107455000D03*
D15*
X164549967Y-109492349D03*
X164549967Y-106495149D03*
D12*
X168212467Y-76993749D03*
X171512467Y-76993749D03*
D14*
X187199968Y-63635000D03*
X187199968Y-69355000D03*
X187999968Y-60293750D03*
X192999968Y-59793750D03*
X193799968Y-63635000D03*
X193799968Y-69355000D03*
D16*
X269959967Y-82995749D03*
D12*
X168212467Y-124618749D03*
X171512467Y-124618749D03*
D13*
X144462467Y-140431249D03*
X144462467Y-143731249D03*
D14*
X53849968Y-120785000D03*
X53849968Y-126505000D03*
X54649968Y-117443750D03*
X59649968Y-116943750D03*
X60449968Y-120785000D03*
X60449968Y-126505000D03*
X187199968Y-82685000D03*
X187199968Y-88405000D03*
X187999968Y-79343750D03*
X192999968Y-78843750D03*
X193799968Y-82685000D03*
X193799968Y-88405000D03*
X225299968Y-63635000D03*
X225299968Y-69355000D03*
X226099968Y-60293750D03*
X231099968Y-59793750D03*
X231899968Y-63635000D03*
X231899968Y-69355000D03*
X110999968Y-82685000D03*
X110999968Y-88405000D03*
X111799968Y-79343750D03*
X116799968Y-78843750D03*
X117599968Y-82685000D03*
X117599968Y-88405000D03*
D12*
X168212467Y-137318749D03*
X171512467Y-137318749D03*
D14*
X34799968Y-63635000D03*
X34799968Y-69355000D03*
X35599968Y-60293750D03*
X40599968Y-59793750D03*
X41399968Y-63635000D03*
X41399968Y-69355000D03*
D12*
X136587467Y-108743749D03*
X133287467Y-108743749D03*
X136587467Y-115093749D03*
X133287467Y-115093749D03*
D14*
X72899968Y-63635000D03*
X72899968Y-69355000D03*
X73699968Y-60293750D03*
X78699968Y-59793750D03*
X79499968Y-63635000D03*
X79499968Y-69355000D03*
D12*
X136587467Y-86518749D03*
X133287467Y-86518749D03*
X168212467Y-86518749D03*
X171512467Y-86518749D03*
X136587467Y-67468749D03*
X133287467Y-67468749D03*
D13*
X169862467Y-140431249D03*
X169862467Y-143731249D03*
D14*
X15749968Y-139835000D03*
X15749968Y-145555000D03*
X16549968Y-136493750D03*
X21549968Y-135993750D03*
X22349968Y-139835000D03*
X22349968Y-145555000D03*
X53849968Y-63635000D03*
X53849968Y-69355000D03*
X54649968Y-60293750D03*
X59649968Y-59793750D03*
X60449968Y-63635000D03*
X60449968Y-69355000D03*
D13*
X138112467Y-140431249D03*
X138112467Y-143731249D03*
D12*
X168212467Y-70643749D03*
X171512467Y-70643749D03*
X168212467Y-73818749D03*
X171512467Y-73818749D03*
X136587467Y-124618749D03*
X133287467Y-124618749D03*
D14*
X206249968Y-139835000D03*
X206249968Y-145555000D03*
X207049968Y-136493750D03*
X212049968Y-135993750D03*
X212849968Y-139835000D03*
X212849968Y-145555000D03*
X282449968Y-139835000D03*
X282449968Y-145555000D03*
X283249968Y-136493750D03*
X288249968Y-135993750D03*
X289049968Y-139835000D03*
X289049968Y-145555000D03*
X15749968Y-120785000D03*
X15749968Y-126505000D03*
X16549968Y-117443750D03*
X21549968Y-116943750D03*
X22349968Y-120785000D03*
X22349968Y-126505000D03*
D12*
X168212467Y-108743749D03*
X171512467Y-108743749D03*
D14*
X263399968Y-82685000D03*
X263399968Y-88405000D03*
X264199968Y-79343750D03*
X269199968Y-78843750D03*
X269999968Y-88405000D03*
D12*
X168212467Y-92868749D03*
X171512467Y-92868749D03*
D14*
X53849968Y-101735000D03*
X53849968Y-107455000D03*
X54649968Y-98393750D03*
X59649968Y-97893750D03*
X60449968Y-101735000D03*
X60449968Y-107455000D03*
X244349968Y-101735000D03*
X244349968Y-107455000D03*
X245149968Y-98393750D03*
X250149968Y-97893750D03*
X250949968Y-101735000D03*
X250949968Y-107455000D03*
D12*
X136587467Y-137318749D03*
X133287467Y-137318749D03*
X136587467Y-80168749D03*
X133287467Y-80168749D03*
X168212467Y-118268749D03*
X171512467Y-118268749D03*
D14*
X263399968Y-63635000D03*
X263399968Y-69355000D03*
X264199968Y-60293750D03*
X269199968Y-59793750D03*
X269999968Y-63635000D03*
X269999968Y-69355000D03*
X101474968Y-139835000D03*
X101474968Y-145555000D03*
X102274968Y-136493750D03*
X107274968Y-135993750D03*
X108074968Y-139835000D03*
X108074968Y-145555000D03*
X244349968Y-63635000D03*
X244349968Y-69355000D03*
X245149968Y-60293750D03*
X250149968Y-59793750D03*
X250949968Y-63635000D03*
X250949968Y-69355000D03*
X187199968Y-139835000D03*
X187199968Y-145555000D03*
X187999968Y-136493750D03*
X192999968Y-135993750D03*
X193799968Y-139835000D03*
X193799968Y-145555000D03*
D16*
X35124967Y-83343749D03*
D12*
X136587467Y-134143749D03*
X133287467Y-134143749D03*
D14*
X53849968Y-139835000D03*
X53849968Y-145555000D03*
X54649968Y-136493750D03*
X59649968Y-135993750D03*
X60449968Y-139835000D03*
X60449968Y-145555000D03*
X263399968Y-101735000D03*
X263399968Y-107455000D03*
X264199968Y-98393750D03*
X269199968Y-97893750D03*
X269999968Y-101735000D03*
X269999968Y-107455000D03*
D12*
X168212467Y-67468749D03*
X171512467Y-67468749D03*
X168212467Y-127793749D03*
X171512467Y-127793749D03*
D14*
X91949968Y-101735000D03*
X91949968Y-107455000D03*
X92749968Y-98393750D03*
X97749968Y-97893750D03*
X98549968Y-101735000D03*
X98549968Y-107455000D03*
X110999968Y-101735000D03*
X110999968Y-107455000D03*
X111799968Y-98393750D03*
X116799968Y-97893750D03*
X117599968Y-101735000D03*
X117599968Y-107455000D03*
X282449968Y-120785000D03*
X282449968Y-126505000D03*
X283249968Y-117443750D03*
X288249968Y-116943750D03*
X289049968Y-120785000D03*
X289049968Y-126505000D03*
D12*
X136587467Y-89693749D03*
X133287467Y-89693749D03*
X168212467Y-80168749D03*
X171512467Y-80168749D03*
D13*
X166687467Y-140431249D03*
X166687467Y-143731249D03*
D14*
X244349968Y-139835000D03*
X244349968Y-145555000D03*
X245149968Y-136493750D03*
X250149968Y-135993750D03*
X250949968Y-139835000D03*
X250949968Y-145555000D03*
X263399968Y-139835000D03*
X263399968Y-145555000D03*
X264199968Y-136493750D03*
X269199968Y-135993750D03*
X269999968Y-139835000D03*
X269999968Y-145555000D03*
X110999968Y-139835000D03*
X110999968Y-145555000D03*
X111799968Y-136493750D03*
X116799968Y-135993750D03*
X117599968Y-139835000D03*
X117599968Y-145555000D03*
D13*
X153987467Y-140431249D03*
X153987467Y-143731249D03*
D12*
X168212467Y-105568749D03*
X171512467Y-105568749D03*
D14*
X244349968Y-82685000D03*
X244349968Y-88405000D03*
X245149968Y-79343750D03*
X250149968Y-78843750D03*
X250949968Y-82685000D03*
X250949968Y-88405000D03*
X282449968Y-82685000D03*
X282449968Y-88405000D03*
X283249968Y-79343750D03*
X288249968Y-78843750D03*
X289049968Y-82685000D03*
X289049968Y-88405000D03*
X187199968Y-101735000D03*
X187199968Y-107455000D03*
X187999968Y-98393750D03*
X192999968Y-97893750D03*
X193799968Y-101735000D03*
X193799968Y-107455000D03*
D12*
X168212467Y-99218749D03*
X171512467Y-99218749D03*
X136587467Y-92868749D03*
X133287467Y-92868749D03*
D14*
X91949968Y-82685000D03*
X91949968Y-88405000D03*
X92749968Y-79343750D03*
X97749968Y-78843750D03*
X98549968Y-82685000D03*
X98549968Y-88405000D03*
D12*
X168212467Y-130968749D03*
X171512467Y-130968749D03*
D14*
X15749968Y-63635000D03*
X15749968Y-69355000D03*
X16549968Y-60293750D03*
X21549968Y-59793750D03*
X22349968Y-63635000D03*
X22349968Y-69355000D03*
D12*
X136587467Y-83343749D03*
X133287467Y-83343749D03*
D14*
X187199968Y-120785000D03*
X187199968Y-126505000D03*
X187999968Y-117443750D03*
X192999968Y-116943750D03*
X193799968Y-120785000D03*
X193799968Y-126505000D03*
D12*
X136587467Y-64293749D03*
X133287467Y-64293749D03*
D14*
X206249968Y-120785000D03*
X206249968Y-126505000D03*
X207049968Y-117443750D03*
X212049968Y-116943750D03*
X212849968Y-120785000D03*
X212849968Y-126505000D03*
X244349968Y-120785000D03*
X244349968Y-126505000D03*
X245149968Y-117443750D03*
X250149968Y-116943750D03*
X250949968Y-120785000D03*
X250949968Y-126505000D03*
D12*
X168212467Y-83343749D03*
X171512467Y-83343749D03*
X168212467Y-89693749D03*
X171512467Y-89693749D03*
D14*
X72899968Y-82685000D03*
X72899968Y-88405000D03*
X73699968Y-79343750D03*
X78699968Y-78843750D03*
X79499968Y-82685000D03*
X79499968Y-88405000D03*
D12*
X136587467Y-76993749D03*
X133287467Y-76993749D03*
D17*
X149599967Y-68156249D03*
X155199967Y-68156249D03*
D18*
X150899967Y-64281249D03*
X151899967Y-64281249D03*
X152899967Y-64281249D03*
X153899967Y-64281249D03*
D13*
X150812467Y-140431249D03*
X150812467Y-143731249D03*
X134937467Y-140431249D03*
X134937467Y-143731249D03*
D12*
X136587467Y-130968749D03*
X133287467Y-130968749D03*
D14*
X34799968Y-88405000D03*
X35599968Y-79343750D03*
X40599968Y-78843750D03*
X41399968Y-82685000D03*
X41399968Y-88405000D03*
D12*
X136587467Y-121443749D03*
X133287467Y-121443749D03*
X136587467Y-96043749D03*
X133287467Y-96043749D03*
D14*
X72899968Y-101735000D03*
X72899968Y-107455000D03*
X73699968Y-98393750D03*
X78699968Y-97893750D03*
X79499968Y-101735000D03*
X79499968Y-107455000D03*
D13*
X157162467Y-140431249D03*
X157162467Y-143731249D03*
D19*
X144779967Y-104298749D03*
D20*
X144779968Y-106838750D03*
X144779968Y-109378750D03*
X144779968Y-111918750D03*
X144779968Y-114458750D03*
X144779968Y-116998750D03*
X144779968Y-119538750D03*
X144779968Y-122078750D03*
X144779968Y-124618750D03*
X144779968Y-127158750D03*
X144779968Y-129698750D03*
X144779968Y-132238750D03*
X160019968Y-132238750D03*
X160019968Y-129698750D03*
X160019968Y-127158750D03*
X160019968Y-124618750D03*
X160019968Y-122078750D03*
X160019968Y-119538750D03*
X160019968Y-116998750D03*
X160019968Y-114458750D03*
X160019968Y-111918750D03*
X160019968Y-109378750D03*
X160019968Y-106838750D03*
X160019968Y-104298750D03*
D12*
X168212467Y-115093749D03*
X171512467Y-115093749D03*
D14*
X206249968Y-63635000D03*
X206249968Y-69355000D03*
X207049968Y-60293750D03*
X212049968Y-59793750D03*
X212849968Y-63635000D03*
X212849968Y-69355000D03*
X206249968Y-82685000D03*
X206249968Y-88405000D03*
X207049968Y-79343750D03*
X212049968Y-78843750D03*
X212849968Y-82685000D03*
X212849968Y-88405000D03*
X282450240Y-63635054D03*
X282450240Y-69355054D03*
X283250240Y-60293804D03*
X288250240Y-59793804D03*
X289050240Y-63635054D03*
X289050240Y-69355054D03*
D12*
X168212467Y-64293749D03*
X171512467Y-64293749D03*
D14*
X91949968Y-139835000D03*
X91949968Y-145555000D03*
X92749968Y-136493750D03*
X97749968Y-135993750D03*
X98549968Y-139835000D03*
X98549968Y-145555000D03*
X225299968Y-82685000D03*
X225299968Y-88405000D03*
X226099968Y-79343750D03*
X231099968Y-78843750D03*
X231899968Y-82685000D03*
X231899968Y-88405000D03*
D12*
X168212467Y-96043749D03*
X171512467Y-96043749D03*
D14*
X91949968Y-120785000D03*
X91949968Y-126505000D03*
X92749968Y-117443750D03*
X97749968Y-116943750D03*
X98549968Y-120785000D03*
X98549968Y-126505000D03*
X72899968Y-139835000D03*
X72899968Y-145555000D03*
X73699968Y-136493750D03*
X78699968Y-135993750D03*
X79499968Y-139835000D03*
X79499968Y-145555000D03*
X110999968Y-120785000D03*
X110999968Y-126505000D03*
X111799968Y-117443750D03*
X116799968Y-116943750D03*
X117599968Y-120785000D03*
X117599968Y-126505000D03*
X225299968Y-120785000D03*
X225299968Y-126505000D03*
X226099968Y-117443750D03*
X231099968Y-116943750D03*
X231899968Y-120785000D03*
X231899968Y-126505000D03*
D13*
X141287467Y-140431249D03*
X141287467Y-143731249D03*
X160337467Y-140431249D03*
X160337467Y-143731249D03*
D12*
X168212467Y-102393749D03*
X171512467Y-102393749D03*
X136587467Y-118268749D03*
X133287467Y-118268749D03*
D14*
X34799968Y-120785000D03*
X34799968Y-126505000D03*
X35599968Y-117443750D03*
X40599968Y-116943750D03*
X41399968Y-120785000D03*
X41399968Y-126505000D03*
X282449968Y-101735000D03*
X282449968Y-107455000D03*
X283249968Y-98393750D03*
X288249968Y-97893750D03*
X289049968Y-101735000D03*
X289049968Y-107455000D03*
D12*
X136587467Y-105568749D03*
X133287467Y-105568749D03*
D14*
X34799968Y-139835000D03*
X34799968Y-145555000D03*
X35599968Y-136493750D03*
X40599968Y-135993750D03*
X41399968Y-139835000D03*
X41399968Y-145555000D03*
X15749968Y-101735000D03*
X15749968Y-107455000D03*
X16549968Y-98393750D03*
X21549968Y-97893750D03*
X22349968Y-101735000D03*
X22349968Y-107455000D03*
D12*
X136587467Y-127793749D03*
X133287467Y-127793749D03*
X136587467Y-99218749D03*
X133287467Y-99218749D03*
X136587467Y-102393749D03*
X133287467Y-102393749D03*
D14*
X225299968Y-101735000D03*
X225299968Y-107455000D03*
X226099968Y-98393750D03*
X231099968Y-97893750D03*
X231899968Y-101735000D03*
X231899968Y-107455000D03*
X206249968Y-101735000D03*
X206249968Y-107455000D03*
X207049968Y-98393750D03*
X212049968Y-97893750D03*
X212849968Y-101735000D03*
X212849968Y-107455000D03*
X53849968Y-82685000D03*
X53849968Y-88405000D03*
X54649968Y-79343750D03*
X59649968Y-78843750D03*
X60449968Y-82685000D03*
X60449968Y-88405000D03*
X225299968Y-139835000D03*
X225299968Y-145555000D03*
X226099968Y-136493750D03*
X231099968Y-135993750D03*
X231899968Y-139835000D03*
X231899968Y-145555000D03*
X263399968Y-120785000D03*
X263399968Y-126505000D03*
X264199968Y-117443750D03*
X269199968Y-116943750D03*
X269999968Y-120785000D03*
X269999968Y-126505000D03*
X72899968Y-120785000D03*
X72899968Y-126505000D03*
X73699968Y-117443750D03*
X78699968Y-116943750D03*
X79499968Y-120785000D03*
X79499968Y-126505000D03*
D12*
X136587467Y-70643749D03*
X133287467Y-70643749D03*
D14*
X15749968Y-82685000D03*
X15749968Y-88405000D03*
X16549968Y-79343750D03*
X21549968Y-78843750D03*
X22349968Y-82685000D03*
X22349968Y-88405000D03*
D21*
X26974968Y-61724996D03*
X27774969Y-59974999D03*
X28574968Y-61724996D03*
X29374968Y-59974999D03*
X30174968Y-61724996D03*
D22*
X24924968Y-56400000D03*
X32224968Y-56400000D03*
M02*
