G04 #@! TF.GenerationSoftware,KiCad,Pcbnew,(6.99.0-566-g22ff66f142)*
G04 #@! TF.CreationDate,2022-04-28T17:10:11+03:00*
G04 #@! TF.ProjectId,lumberjerk,6c756d62-6572-46a6-9572-6b2e6b696361,1.2*
G04 #@! TF.SameCoordinates,Original*
G04 #@! TF.FileFunction,Legend,Bot*
G04 #@! TF.FilePolarity,Positive*
%FSLAX46Y46*%
G04 Gerber Fmt 4.6, Leading zero omitted, Abs format (unit mm)*
G04 Created by KiCad (PCBNEW (6.99.0-566-g22ff66f142)) date 2022-04-28 17:10:11*
%MOMM*%
%LPD*%
G01*
G04 APERTURE LIST*
%ADD10C,0.260000*%
%ADD11C,0.150000*%
%ADD12C,0.250000*%
G04 APERTURE END LIST*
D10*
X172128546Y-139222845D02*
X172747594Y-139222845D01*
X172747594Y-139222845D02*
X172747594Y-137922845D01*
X171138070Y-138356178D02*
X171138070Y-139222845D01*
X171695213Y-138356178D02*
X171695213Y-139037130D01*
X171695213Y-139037130D02*
X171633308Y-139160940D01*
X171633308Y-139160940D02*
X171509498Y-139222845D01*
X171509498Y-139222845D02*
X171323784Y-139222845D01*
X171323784Y-139222845D02*
X171199975Y-139160940D01*
X171199975Y-139160940D02*
X171138070Y-139099035D01*
X170519022Y-139222845D02*
X170519022Y-138356178D01*
X170519022Y-138479988D02*
X170457117Y-138418083D01*
X170457117Y-138418083D02*
X170333307Y-138356178D01*
X170333307Y-138356178D02*
X170147593Y-138356178D01*
X170147593Y-138356178D02*
X170023784Y-138418083D01*
X170023784Y-138418083D02*
X169961879Y-138541892D01*
X169961879Y-138541892D02*
X169961879Y-139222845D01*
X169961879Y-138541892D02*
X169899974Y-138418083D01*
X169899974Y-138418083D02*
X169776165Y-138356178D01*
X169776165Y-138356178D02*
X169590450Y-138356178D01*
X169590450Y-138356178D02*
X169466641Y-138418083D01*
X169466641Y-138418083D02*
X169404736Y-138541892D01*
X169404736Y-138541892D02*
X169404736Y-139222845D01*
X168785688Y-139222845D02*
X168785688Y-137922845D01*
X168785688Y-138418083D02*
X168661878Y-138356178D01*
X168661878Y-138356178D02*
X168414259Y-138356178D01*
X168414259Y-138356178D02*
X168290450Y-138418083D01*
X168290450Y-138418083D02*
X168228545Y-138479988D01*
X168228545Y-138479988D02*
X168166640Y-138603797D01*
X168166640Y-138603797D02*
X168166640Y-138975226D01*
X168166640Y-138975226D02*
X168228545Y-139099035D01*
X168228545Y-139099035D02*
X168290450Y-139160940D01*
X168290450Y-139160940D02*
X168414259Y-139222845D01*
X168414259Y-139222845D02*
X168661878Y-139222845D01*
X168661878Y-139222845D02*
X168785688Y-139160940D01*
X167114259Y-139160940D02*
X167238068Y-139222845D01*
X167238068Y-139222845D02*
X167485687Y-139222845D01*
X167485687Y-139222845D02*
X167609497Y-139160940D01*
X167609497Y-139160940D02*
X167671401Y-139037130D01*
X167671401Y-139037130D02*
X167671401Y-138541892D01*
X167671401Y-138541892D02*
X167609497Y-138418083D01*
X167609497Y-138418083D02*
X167485687Y-138356178D01*
X167485687Y-138356178D02*
X167238068Y-138356178D01*
X167238068Y-138356178D02*
X167114259Y-138418083D01*
X167114259Y-138418083D02*
X167052354Y-138541892D01*
X167052354Y-138541892D02*
X167052354Y-138665702D01*
X167052354Y-138665702D02*
X167671401Y-138789511D01*
X166495211Y-139222845D02*
X166495211Y-138356178D01*
X166495211Y-138603797D02*
X166433306Y-138479988D01*
X166433306Y-138479988D02*
X166371401Y-138418083D01*
X166371401Y-138418083D02*
X166247592Y-138356178D01*
X166247592Y-138356178D02*
X166123782Y-138356178D01*
X165690449Y-138356178D02*
X165690449Y-139470464D01*
X165690449Y-139470464D02*
X165752353Y-139594273D01*
X165752353Y-139594273D02*
X165876163Y-139656178D01*
X165876163Y-139656178D02*
X165938068Y-139656178D01*
X165690449Y-137922845D02*
X165752353Y-137984750D01*
X165752353Y-137984750D02*
X165690449Y-138046654D01*
X165690449Y-138046654D02*
X165628544Y-137984750D01*
X165628544Y-137984750D02*
X165690449Y-137922845D01*
X165690449Y-137922845D02*
X165690449Y-138046654D01*
X164576163Y-139160940D02*
X164699972Y-139222845D01*
X164699972Y-139222845D02*
X164947591Y-139222845D01*
X164947591Y-139222845D02*
X165071401Y-139160940D01*
X165071401Y-139160940D02*
X165133305Y-139037130D01*
X165133305Y-139037130D02*
X165133305Y-138541892D01*
X165133305Y-138541892D02*
X165071401Y-138418083D01*
X165071401Y-138418083D02*
X164947591Y-138356178D01*
X164947591Y-138356178D02*
X164699972Y-138356178D01*
X164699972Y-138356178D02*
X164576163Y-138418083D01*
X164576163Y-138418083D02*
X164514258Y-138541892D01*
X164514258Y-138541892D02*
X164514258Y-138665702D01*
X164514258Y-138665702D02*
X165133305Y-138789511D01*
X163957115Y-139222845D02*
X163957115Y-138356178D01*
X163957115Y-138603797D02*
X163895210Y-138479988D01*
X163895210Y-138479988D02*
X163833305Y-138418083D01*
X163833305Y-138418083D02*
X163709496Y-138356178D01*
X163709496Y-138356178D02*
X163585686Y-138356178D01*
X163152353Y-139222845D02*
X163152353Y-137922845D01*
X163028543Y-138727607D02*
X162657115Y-139222845D01*
X162657115Y-138356178D02*
X163152353Y-138851416D01*
X160762829Y-139222845D02*
X160762829Y-137922845D01*
X160762829Y-139160940D02*
X160886638Y-139222845D01*
X160886638Y-139222845D02*
X161134257Y-139222845D01*
X161134257Y-139222845D02*
X161258067Y-139160940D01*
X161258067Y-139160940D02*
X161319972Y-139099035D01*
X161319972Y-139099035D02*
X161381876Y-138975226D01*
X161381876Y-138975226D02*
X161381876Y-138603797D01*
X161381876Y-138603797D02*
X161319972Y-138479988D01*
X161319972Y-138479988D02*
X161258067Y-138418083D01*
X161258067Y-138418083D02*
X161134257Y-138356178D01*
X161134257Y-138356178D02*
X160886638Y-138356178D01*
X160886638Y-138356178D02*
X160762829Y-138418083D01*
X159648543Y-139160940D02*
X159772352Y-139222845D01*
X159772352Y-139222845D02*
X160019971Y-139222845D01*
X160019971Y-139222845D02*
X160143781Y-139160940D01*
X160143781Y-139160940D02*
X160205685Y-139037130D01*
X160205685Y-139037130D02*
X160205685Y-138541892D01*
X160205685Y-138541892D02*
X160143781Y-138418083D01*
X160143781Y-138418083D02*
X160019971Y-138356178D01*
X160019971Y-138356178D02*
X159772352Y-138356178D01*
X159772352Y-138356178D02*
X159648543Y-138418083D01*
X159648543Y-138418083D02*
X159586638Y-138541892D01*
X159586638Y-138541892D02*
X159586638Y-138665702D01*
X159586638Y-138665702D02*
X160205685Y-138789511D01*
X159091399Y-139160940D02*
X158967590Y-139222845D01*
X158967590Y-139222845D02*
X158719971Y-139222845D01*
X158719971Y-139222845D02*
X158596161Y-139160940D01*
X158596161Y-139160940D02*
X158534257Y-139037130D01*
X158534257Y-139037130D02*
X158534257Y-138975226D01*
X158534257Y-138975226D02*
X158596161Y-138851416D01*
X158596161Y-138851416D02*
X158719971Y-138789511D01*
X158719971Y-138789511D02*
X158905685Y-138789511D01*
X158905685Y-138789511D02*
X159029495Y-138727607D01*
X159029495Y-138727607D02*
X159091399Y-138603797D01*
X159091399Y-138603797D02*
X159091399Y-138541892D01*
X159091399Y-138541892D02*
X159029495Y-138418083D01*
X159029495Y-138418083D02*
X158905685Y-138356178D01*
X158905685Y-138356178D02*
X158719971Y-138356178D01*
X158719971Y-138356178D02*
X158596161Y-138418083D01*
X157977114Y-139222845D02*
X157977114Y-138356178D01*
X157977114Y-137922845D02*
X158039018Y-137984750D01*
X158039018Y-137984750D02*
X157977114Y-138046654D01*
X157977114Y-138046654D02*
X157915209Y-137984750D01*
X157915209Y-137984750D02*
X157977114Y-137922845D01*
X157977114Y-137922845D02*
X157977114Y-138046654D01*
X156800923Y-138356178D02*
X156800923Y-139408559D01*
X156800923Y-139408559D02*
X156862828Y-139532369D01*
X156862828Y-139532369D02*
X156924732Y-139594273D01*
X156924732Y-139594273D02*
X157048542Y-139656178D01*
X157048542Y-139656178D02*
X157234256Y-139656178D01*
X157234256Y-139656178D02*
X157358066Y-139594273D01*
X156800923Y-139160940D02*
X156924732Y-139222845D01*
X156924732Y-139222845D02*
X157172351Y-139222845D01*
X157172351Y-139222845D02*
X157296161Y-139160940D01*
X157296161Y-139160940D02*
X157358066Y-139099035D01*
X157358066Y-139099035D02*
X157419970Y-138975226D01*
X157419970Y-138975226D02*
X157419970Y-138603797D01*
X157419970Y-138603797D02*
X157358066Y-138479988D01*
X157358066Y-138479988D02*
X157296161Y-138418083D01*
X157296161Y-138418083D02*
X157172351Y-138356178D01*
X157172351Y-138356178D02*
X156924732Y-138356178D01*
X156924732Y-138356178D02*
X156800923Y-138418083D01*
X156181875Y-138356178D02*
X156181875Y-139222845D01*
X156181875Y-138479988D02*
X156119970Y-138418083D01*
X156119970Y-138418083D02*
X155996160Y-138356178D01*
X155996160Y-138356178D02*
X155810446Y-138356178D01*
X155810446Y-138356178D02*
X155686637Y-138418083D01*
X155686637Y-138418083D02*
X155624732Y-138541892D01*
X155624732Y-138541892D02*
X155624732Y-139222845D01*
X154510446Y-139160940D02*
X154634255Y-139222845D01*
X154634255Y-139222845D02*
X154881874Y-139222845D01*
X154881874Y-139222845D02*
X155005684Y-139160940D01*
X155005684Y-139160940D02*
X155067588Y-139037130D01*
X155067588Y-139037130D02*
X155067588Y-138541892D01*
X155067588Y-138541892D02*
X155005684Y-138418083D01*
X155005684Y-138418083D02*
X154881874Y-138356178D01*
X154881874Y-138356178D02*
X154634255Y-138356178D01*
X154634255Y-138356178D02*
X154510446Y-138418083D01*
X154510446Y-138418083D02*
X154448541Y-138541892D01*
X154448541Y-138541892D02*
X154448541Y-138665702D01*
X154448541Y-138665702D02*
X155067588Y-138789511D01*
X153334255Y-139222845D02*
X153334255Y-137922845D01*
X153334255Y-139160940D02*
X153458064Y-139222845D01*
X153458064Y-139222845D02*
X153705683Y-139222845D01*
X153705683Y-139222845D02*
X153829493Y-139160940D01*
X153829493Y-139160940D02*
X153891398Y-139099035D01*
X153891398Y-139099035D02*
X153953302Y-138975226D01*
X153953302Y-138975226D02*
X153953302Y-138603797D01*
X153953302Y-138603797D02*
X153891398Y-138479988D01*
X153891398Y-138479988D02*
X153829493Y-138418083D01*
X153829493Y-138418083D02*
X153705683Y-138356178D01*
X153705683Y-138356178D02*
X153458064Y-138356178D01*
X153458064Y-138356178D02*
X153334255Y-138418083D01*
X151935207Y-139222845D02*
X151935207Y-137922845D01*
X151935207Y-138418083D02*
X151811397Y-138356178D01*
X151811397Y-138356178D02*
X151563778Y-138356178D01*
X151563778Y-138356178D02*
X151439969Y-138418083D01*
X151439969Y-138418083D02*
X151378064Y-138479988D01*
X151378064Y-138479988D02*
X151316159Y-138603797D01*
X151316159Y-138603797D02*
X151316159Y-138975226D01*
X151316159Y-138975226D02*
X151378064Y-139099035D01*
X151378064Y-139099035D02*
X151439969Y-139160940D01*
X151439969Y-139160940D02*
X151563778Y-139222845D01*
X151563778Y-139222845D02*
X151811397Y-139222845D01*
X151811397Y-139222845D02*
X151935207Y-139160940D01*
X150882825Y-138356178D02*
X150573301Y-139222845D01*
X150263778Y-138356178D02*
X150573301Y-139222845D01*
X150573301Y-139222845D02*
X150697111Y-139532369D01*
X150697111Y-139532369D02*
X150759016Y-139594273D01*
X150759016Y-139594273D02*
X150882825Y-139656178D01*
X148307586Y-137984750D02*
X148431396Y-137922845D01*
X148431396Y-137922845D02*
X148617110Y-137922845D01*
X148617110Y-137922845D02*
X148802824Y-137984750D01*
X148802824Y-137984750D02*
X148926634Y-138108559D01*
X148926634Y-138108559D02*
X148988539Y-138232369D01*
X148988539Y-138232369D02*
X149050443Y-138479988D01*
X149050443Y-138479988D02*
X149050443Y-138665702D01*
X149050443Y-138665702D02*
X148988539Y-138913321D01*
X148988539Y-138913321D02*
X148926634Y-139037130D01*
X148926634Y-139037130D02*
X148802824Y-139160940D01*
X148802824Y-139160940D02*
X148617110Y-139222845D01*
X148617110Y-139222845D02*
X148493301Y-139222845D01*
X148493301Y-139222845D02*
X148307586Y-139160940D01*
X148307586Y-139160940D02*
X148245682Y-139099035D01*
X148245682Y-139099035D02*
X148245682Y-138665702D01*
X148245682Y-138665702D02*
X148493301Y-138665702D01*
X147812348Y-138356178D02*
X147502824Y-139222845D01*
X147502824Y-139222845D02*
X147193301Y-138356178D01*
X146140919Y-139222845D02*
X146140919Y-138541892D01*
X146140919Y-138541892D02*
X146202824Y-138418083D01*
X146202824Y-138418083D02*
X146326633Y-138356178D01*
X146326633Y-138356178D02*
X146574252Y-138356178D01*
X146574252Y-138356178D02*
X146698062Y-138418083D01*
X146140919Y-139160940D02*
X146264728Y-139222845D01*
X146264728Y-139222845D02*
X146574252Y-139222845D01*
X146574252Y-139222845D02*
X146698062Y-139160940D01*
X146698062Y-139160940D02*
X146759966Y-139037130D01*
X146759966Y-139037130D02*
X146759966Y-138913321D01*
X146759966Y-138913321D02*
X146698062Y-138789511D01*
X146698062Y-138789511D02*
X146574252Y-138727607D01*
X146574252Y-138727607D02*
X146264728Y-138727607D01*
X146264728Y-138727607D02*
X146140919Y-138665702D01*
X145336156Y-139222845D02*
X145459966Y-139160940D01*
X145459966Y-139160940D02*
X145521871Y-139037130D01*
X145521871Y-139037130D02*
X145521871Y-137922845D01*
X144283775Y-139160940D02*
X144407584Y-139222845D01*
X144407584Y-139222845D02*
X144655203Y-139222845D01*
X144655203Y-139222845D02*
X144779013Y-139160940D01*
X144779013Y-139160940D02*
X144840918Y-139099035D01*
X144840918Y-139099035D02*
X144902822Y-138975226D01*
X144902822Y-138975226D02*
X144902822Y-138603797D01*
X144902822Y-138603797D02*
X144840918Y-138479988D01*
X144840918Y-138479988D02*
X144779013Y-138418083D01*
X144779013Y-138418083D02*
X144655203Y-138356178D01*
X144655203Y-138356178D02*
X144407584Y-138356178D01*
X144407584Y-138356178D02*
X144283775Y-138418083D01*
X143726632Y-139222845D02*
X143726632Y-137922845D01*
X143169489Y-139222845D02*
X143169489Y-138541892D01*
X143169489Y-138541892D02*
X143231394Y-138418083D01*
X143231394Y-138418083D02*
X143355203Y-138356178D01*
X143355203Y-138356178D02*
X143540917Y-138356178D01*
X143540917Y-138356178D02*
X143664727Y-138418083D01*
X143664727Y-138418083D02*
X143726632Y-138479988D01*
X142488536Y-137922845D02*
X142612345Y-138170464D01*
X141374250Y-139160940D02*
X141498059Y-139222845D01*
X141498059Y-139222845D02*
X141745678Y-139222845D01*
X141745678Y-139222845D02*
X141869488Y-139160940D01*
X141869488Y-139160940D02*
X141931393Y-139099035D01*
X141931393Y-139099035D02*
X141993297Y-138975226D01*
X141993297Y-138975226D02*
X141993297Y-138603797D01*
X141993297Y-138603797D02*
X141931393Y-138479988D01*
X141931393Y-138479988D02*
X141869488Y-138418083D01*
X141869488Y-138418083D02*
X141745678Y-138356178D01*
X141745678Y-138356178D02*
X141498059Y-138356178D01*
X141498059Y-138356178D02*
X141374250Y-138418083D01*
X140259964Y-139222845D02*
X140259964Y-138541892D01*
X140259964Y-138541892D02*
X140321869Y-138418083D01*
X140321869Y-138418083D02*
X140445678Y-138356178D01*
X140445678Y-138356178D02*
X140693297Y-138356178D01*
X140693297Y-138356178D02*
X140817107Y-138418083D01*
X140259964Y-139160940D02*
X140383773Y-139222845D01*
X140383773Y-139222845D02*
X140693297Y-139222845D01*
X140693297Y-139222845D02*
X140817107Y-139160940D01*
X140817107Y-139160940D02*
X140879011Y-139037130D01*
X140879011Y-139037130D02*
X140879011Y-138913321D01*
X140879011Y-138913321D02*
X140817107Y-138789511D01*
X140817107Y-138789511D02*
X140693297Y-138727607D01*
X140693297Y-138727607D02*
X140383773Y-138727607D01*
X140383773Y-138727607D02*
X140259964Y-138665702D01*
X138984725Y-138356178D02*
X138737106Y-139222845D01*
X138737106Y-139222845D02*
X138489487Y-138603797D01*
X138489487Y-138603797D02*
X138241868Y-139222845D01*
X138241868Y-139222845D02*
X137994249Y-138356178D01*
X137499011Y-139222845D02*
X137499011Y-138356178D01*
X137499011Y-137922845D02*
X137560915Y-137984750D01*
X137560915Y-137984750D02*
X137499011Y-138046654D01*
X137499011Y-138046654D02*
X137437106Y-137984750D01*
X137437106Y-137984750D02*
X137499011Y-137922845D01*
X137499011Y-137922845D02*
X137499011Y-138046654D01*
X137065677Y-138356178D02*
X136570439Y-138356178D01*
X136879963Y-137922845D02*
X136879963Y-139037130D01*
X136879963Y-139037130D02*
X136818058Y-139160940D01*
X136818058Y-139160940D02*
X136694248Y-139222845D01*
X136694248Y-139222845D02*
X136570439Y-139222845D01*
X136137105Y-139222845D02*
X136137105Y-137922845D01*
X135579962Y-139222845D02*
X135579962Y-138541892D01*
X135579962Y-138541892D02*
X135641867Y-138418083D01*
X135641867Y-138418083D02*
X135765676Y-138356178D01*
X135765676Y-138356178D02*
X135951390Y-138356178D01*
X135951390Y-138356178D02*
X136075200Y-138418083D01*
X136075200Y-138418083D02*
X136137105Y-138479988D01*
X133190438Y-138356178D02*
X134180914Y-138727607D01*
X134180914Y-138727607D02*
X133190438Y-139099035D01*
X132695199Y-137922845D02*
X131890437Y-137922845D01*
X131890437Y-137922845D02*
X132323771Y-138418083D01*
X132323771Y-138418083D02*
X132138056Y-138418083D01*
X132138056Y-138418083D02*
X132014247Y-138479988D01*
X132014247Y-138479988D02*
X131952342Y-138541892D01*
X131952342Y-138541892D02*
X131890437Y-138665702D01*
X131890437Y-138665702D02*
X131890437Y-138975226D01*
X131890437Y-138975226D02*
X131952342Y-139099035D01*
X131952342Y-139099035D02*
X132014247Y-139160940D01*
X132014247Y-139160940D02*
X132138056Y-139222845D01*
X132138056Y-139222845D02*
X132509485Y-139222845D01*
X132509485Y-139222845D02*
X132633294Y-139160940D01*
X132633294Y-139160940D02*
X132695199Y-139099035D01*
X165189020Y-143434845D02*
X165189020Y-142134845D01*
X164569972Y-142568178D02*
X164569972Y-143434845D01*
X164569972Y-142691988D02*
X164508067Y-142630083D01*
X164508067Y-142630083D02*
X164384257Y-142568178D01*
X164384257Y-142568178D02*
X164198543Y-142568178D01*
X164198543Y-142568178D02*
X164074734Y-142630083D01*
X164074734Y-142630083D02*
X164012829Y-142753892D01*
X164012829Y-142753892D02*
X164012829Y-143434845D01*
X163455685Y-143372940D02*
X163331876Y-143434845D01*
X163331876Y-143434845D02*
X163084257Y-143434845D01*
X163084257Y-143434845D02*
X162960447Y-143372940D01*
X162960447Y-143372940D02*
X162898543Y-143249130D01*
X162898543Y-143249130D02*
X162898543Y-143187226D01*
X162898543Y-143187226D02*
X162960447Y-143063416D01*
X162960447Y-143063416D02*
X163084257Y-143001511D01*
X163084257Y-143001511D02*
X163269971Y-143001511D01*
X163269971Y-143001511D02*
X163393781Y-142939607D01*
X163393781Y-142939607D02*
X163455685Y-142815797D01*
X163455685Y-142815797D02*
X163455685Y-142753892D01*
X163455685Y-142753892D02*
X163393781Y-142630083D01*
X163393781Y-142630083D02*
X163269971Y-142568178D01*
X163269971Y-142568178D02*
X163084257Y-142568178D01*
X163084257Y-142568178D02*
X162960447Y-142630083D01*
X162341400Y-142568178D02*
X162341400Y-143868178D01*
X162341400Y-142630083D02*
X162217590Y-142568178D01*
X162217590Y-142568178D02*
X161969971Y-142568178D01*
X161969971Y-142568178D02*
X161846162Y-142630083D01*
X161846162Y-142630083D02*
X161784257Y-142691988D01*
X161784257Y-142691988D02*
X161722352Y-142815797D01*
X161722352Y-142815797D02*
X161722352Y-143187226D01*
X161722352Y-143187226D02*
X161784257Y-143311035D01*
X161784257Y-143311035D02*
X161846162Y-143372940D01*
X161846162Y-143372940D02*
X161969971Y-143434845D01*
X161969971Y-143434845D02*
X162217590Y-143434845D01*
X162217590Y-143434845D02*
X162341400Y-143372940D01*
X161165209Y-143434845D02*
X161165209Y-142568178D01*
X161165209Y-142134845D02*
X161227113Y-142196750D01*
X161227113Y-142196750D02*
X161165209Y-142258654D01*
X161165209Y-142258654D02*
X161103304Y-142196750D01*
X161103304Y-142196750D02*
X161165209Y-142134845D01*
X161165209Y-142134845D02*
X161165209Y-142258654D01*
X160546161Y-143434845D02*
X160546161Y-142568178D01*
X160546161Y-142815797D02*
X160484256Y-142691988D01*
X160484256Y-142691988D02*
X160422351Y-142630083D01*
X160422351Y-142630083D02*
X160298542Y-142568178D01*
X160298542Y-142568178D02*
X160174732Y-142568178D01*
X159246161Y-143372940D02*
X159369970Y-143434845D01*
X159369970Y-143434845D02*
X159617589Y-143434845D01*
X159617589Y-143434845D02*
X159741399Y-143372940D01*
X159741399Y-143372940D02*
X159803303Y-143249130D01*
X159803303Y-143249130D02*
X159803303Y-142753892D01*
X159803303Y-142753892D02*
X159741399Y-142630083D01*
X159741399Y-142630083D02*
X159617589Y-142568178D01*
X159617589Y-142568178D02*
X159369970Y-142568178D01*
X159369970Y-142568178D02*
X159246161Y-142630083D01*
X159246161Y-142630083D02*
X159184256Y-142753892D01*
X159184256Y-142753892D02*
X159184256Y-142877702D01*
X159184256Y-142877702D02*
X159803303Y-143001511D01*
X158069970Y-143434845D02*
X158069970Y-142134845D01*
X158069970Y-143372940D02*
X158193779Y-143434845D01*
X158193779Y-143434845D02*
X158441398Y-143434845D01*
X158441398Y-143434845D02*
X158565208Y-143372940D01*
X158565208Y-143372940D02*
X158627113Y-143311035D01*
X158627113Y-143311035D02*
X158689017Y-143187226D01*
X158689017Y-143187226D02*
X158689017Y-142815797D01*
X158689017Y-142815797D02*
X158627113Y-142691988D01*
X158627113Y-142691988D02*
X158565208Y-142630083D01*
X158565208Y-142630083D02*
X158441398Y-142568178D01*
X158441398Y-142568178D02*
X158193779Y-142568178D01*
X158193779Y-142568178D02*
X158069970Y-142630083D01*
X156670922Y-143434845D02*
X156670922Y-142134845D01*
X156670922Y-142630083D02*
X156547112Y-142568178D01*
X156547112Y-142568178D02*
X156299493Y-142568178D01*
X156299493Y-142568178D02*
X156175684Y-142630083D01*
X156175684Y-142630083D02*
X156113779Y-142691988D01*
X156113779Y-142691988D02*
X156051874Y-142815797D01*
X156051874Y-142815797D02*
X156051874Y-143187226D01*
X156051874Y-143187226D02*
X156113779Y-143311035D01*
X156113779Y-143311035D02*
X156175684Y-143372940D01*
X156175684Y-143372940D02*
X156299493Y-143434845D01*
X156299493Y-143434845D02*
X156547112Y-143434845D01*
X156547112Y-143434845D02*
X156670922Y-143372940D01*
X155618540Y-142568178D02*
X155309016Y-143434845D01*
X154999493Y-142568178D02*
X155309016Y-143434845D01*
X155309016Y-143434845D02*
X155432826Y-143744369D01*
X155432826Y-143744369D02*
X155494731Y-143806273D01*
X155494731Y-143806273D02*
X155618540Y-143868178D01*
X153909968Y-142568178D02*
X153414730Y-142568178D01*
X153724254Y-142134845D02*
X153724254Y-143249130D01*
X153724254Y-143249130D02*
X153662349Y-143372940D01*
X153662349Y-143372940D02*
X153538539Y-143434845D01*
X153538539Y-143434845D02*
X153414730Y-143434845D01*
X152981396Y-143434845D02*
X152981396Y-142134845D01*
X152424253Y-143434845D02*
X152424253Y-142753892D01*
X152424253Y-142753892D02*
X152486158Y-142630083D01*
X152486158Y-142630083D02*
X152609967Y-142568178D01*
X152609967Y-142568178D02*
X152795681Y-142568178D01*
X152795681Y-142568178D02*
X152919491Y-142630083D01*
X152919491Y-142630083D02*
X152981396Y-142691988D01*
X151309967Y-143372940D02*
X151433776Y-143434845D01*
X151433776Y-143434845D02*
X151681395Y-143434845D01*
X151681395Y-143434845D02*
X151805205Y-143372940D01*
X151805205Y-143372940D02*
X151867109Y-143249130D01*
X151867109Y-143249130D02*
X151867109Y-142753892D01*
X151867109Y-142753892D02*
X151805205Y-142630083D01*
X151805205Y-142630083D02*
X151681395Y-142568178D01*
X151681395Y-142568178D02*
X151433776Y-142568178D01*
X151433776Y-142568178D02*
X151309967Y-142630083D01*
X151309967Y-142630083D02*
X151248062Y-142753892D01*
X151248062Y-142753892D02*
X151248062Y-142877702D01*
X151248062Y-142877702D02*
X151867109Y-143001511D01*
X149291871Y-143434845D02*
X149910919Y-143434845D01*
X149910919Y-143434845D02*
X149910919Y-142134845D01*
X148301395Y-142568178D02*
X148301395Y-143434845D01*
X148858538Y-142568178D02*
X148858538Y-143249130D01*
X148858538Y-143249130D02*
X148796633Y-143372940D01*
X148796633Y-143372940D02*
X148672823Y-143434845D01*
X148672823Y-143434845D02*
X148487109Y-143434845D01*
X148487109Y-143434845D02*
X148363300Y-143372940D01*
X148363300Y-143372940D02*
X148301395Y-143311035D01*
X147682347Y-143434845D02*
X147682347Y-142568178D01*
X147682347Y-142691988D02*
X147620442Y-142630083D01*
X147620442Y-142630083D02*
X147496632Y-142568178D01*
X147496632Y-142568178D02*
X147310918Y-142568178D01*
X147310918Y-142568178D02*
X147187109Y-142630083D01*
X147187109Y-142630083D02*
X147125204Y-142753892D01*
X147125204Y-142753892D02*
X147125204Y-143434845D01*
X147125204Y-142753892D02*
X147063299Y-142630083D01*
X147063299Y-142630083D02*
X146939490Y-142568178D01*
X146939490Y-142568178D02*
X146753775Y-142568178D01*
X146753775Y-142568178D02*
X146629966Y-142630083D01*
X146629966Y-142630083D02*
X146568061Y-142753892D01*
X146568061Y-142753892D02*
X146568061Y-143434845D01*
X145949013Y-143434845D02*
X145949013Y-142134845D01*
X145949013Y-142630083D02*
X145825203Y-142568178D01*
X145825203Y-142568178D02*
X145577584Y-142568178D01*
X145577584Y-142568178D02*
X145453775Y-142630083D01*
X145453775Y-142630083D02*
X145391870Y-142691988D01*
X145391870Y-142691988D02*
X145329965Y-142815797D01*
X145329965Y-142815797D02*
X145329965Y-143187226D01*
X145329965Y-143187226D02*
X145391870Y-143311035D01*
X145391870Y-143311035D02*
X145453775Y-143372940D01*
X145453775Y-143372940D02*
X145577584Y-143434845D01*
X145577584Y-143434845D02*
X145825203Y-143434845D01*
X145825203Y-143434845D02*
X145949013Y-143372940D01*
X144277584Y-143372940D02*
X144401393Y-143434845D01*
X144401393Y-143434845D02*
X144649012Y-143434845D01*
X144649012Y-143434845D02*
X144772822Y-143372940D01*
X144772822Y-143372940D02*
X144834726Y-143249130D01*
X144834726Y-143249130D02*
X144834726Y-142753892D01*
X144834726Y-142753892D02*
X144772822Y-142630083D01*
X144772822Y-142630083D02*
X144649012Y-142568178D01*
X144649012Y-142568178D02*
X144401393Y-142568178D01*
X144401393Y-142568178D02*
X144277584Y-142630083D01*
X144277584Y-142630083D02*
X144215679Y-142753892D01*
X144215679Y-142753892D02*
X144215679Y-142877702D01*
X144215679Y-142877702D02*
X144834726Y-143001511D01*
X143658536Y-143434845D02*
X143658536Y-142568178D01*
X143658536Y-142815797D02*
X143596631Y-142691988D01*
X143596631Y-142691988D02*
X143534726Y-142630083D01*
X143534726Y-142630083D02*
X143410917Y-142568178D01*
X143410917Y-142568178D02*
X143287107Y-142568178D01*
X142853774Y-142568178D02*
X142853774Y-143682464D01*
X142853774Y-143682464D02*
X142915678Y-143806273D01*
X142915678Y-143806273D02*
X143039488Y-143868178D01*
X143039488Y-143868178D02*
X143101393Y-143868178D01*
X142853774Y-142134845D02*
X142915678Y-142196750D01*
X142915678Y-142196750D02*
X142853774Y-142258654D01*
X142853774Y-142258654D02*
X142791869Y-142196750D01*
X142791869Y-142196750D02*
X142853774Y-142134845D01*
X142853774Y-142134845D02*
X142853774Y-142258654D01*
X141677583Y-143434845D02*
X141677583Y-142753892D01*
X141677583Y-142753892D02*
X141739488Y-142630083D01*
X141739488Y-142630083D02*
X141863297Y-142568178D01*
X141863297Y-142568178D02*
X142110916Y-142568178D01*
X142110916Y-142568178D02*
X142234726Y-142630083D01*
X141677583Y-143372940D02*
X141801392Y-143434845D01*
X141801392Y-143434845D02*
X142110916Y-143434845D01*
X142110916Y-143434845D02*
X142234726Y-143372940D01*
X142234726Y-143372940D02*
X142296630Y-143249130D01*
X142296630Y-143249130D02*
X142296630Y-143125321D01*
X142296630Y-143125321D02*
X142234726Y-143001511D01*
X142234726Y-143001511D02*
X142110916Y-142939607D01*
X142110916Y-142939607D02*
X141801392Y-142939607D01*
X141801392Y-142939607D02*
X141677583Y-142877702D01*
X140501392Y-143372940D02*
X140625201Y-143434845D01*
X140625201Y-143434845D02*
X140872820Y-143434845D01*
X140872820Y-143434845D02*
X140996630Y-143372940D01*
X140996630Y-143372940D02*
X141058535Y-143311035D01*
X141058535Y-143311035D02*
X141120439Y-143187226D01*
X141120439Y-143187226D02*
X141120439Y-142815797D01*
X141120439Y-142815797D02*
X141058535Y-142691988D01*
X141058535Y-142691988D02*
X140996630Y-142630083D01*
X140996630Y-142630083D02*
X140872820Y-142568178D01*
X140872820Y-142568178D02*
X140625201Y-142568178D01*
X140625201Y-142568178D02*
X140501392Y-142630083D01*
X139944249Y-143434845D02*
X139944249Y-142134845D01*
X139820439Y-142939607D02*
X139449011Y-143434845D01*
X139449011Y-142568178D02*
X139944249Y-143063416D01*
X170673784Y-144674178D02*
X170673784Y-145726559D01*
X170673784Y-145726559D02*
X170735689Y-145850369D01*
X170735689Y-145850369D02*
X170797593Y-145912273D01*
X170797593Y-145912273D02*
X170921403Y-145974178D01*
X170921403Y-145974178D02*
X171107117Y-145974178D01*
X171107117Y-145974178D02*
X171230927Y-145912273D01*
X170673784Y-145478940D02*
X170797593Y-145540845D01*
X170797593Y-145540845D02*
X171045212Y-145540845D01*
X171045212Y-145540845D02*
X171169022Y-145478940D01*
X171169022Y-145478940D02*
X171230927Y-145417035D01*
X171230927Y-145417035D02*
X171292831Y-145293226D01*
X171292831Y-145293226D02*
X171292831Y-144921797D01*
X171292831Y-144921797D02*
X171230927Y-144797988D01*
X171230927Y-144797988D02*
X171169022Y-144736083D01*
X171169022Y-144736083D02*
X171045212Y-144674178D01*
X171045212Y-144674178D02*
X170797593Y-144674178D01*
X170797593Y-144674178D02*
X170673784Y-144736083D01*
X170054736Y-145540845D02*
X170054736Y-144674178D01*
X170054736Y-144240845D02*
X170116640Y-144302750D01*
X170116640Y-144302750D02*
X170054736Y-144364654D01*
X170054736Y-144364654D02*
X169992831Y-144302750D01*
X169992831Y-144302750D02*
X170054736Y-144240845D01*
X170054736Y-144240845D02*
X170054736Y-144364654D01*
X169621402Y-144674178D02*
X169126164Y-144674178D01*
X169435688Y-144240845D02*
X169435688Y-145355130D01*
X169435688Y-145355130D02*
X169373783Y-145478940D01*
X169373783Y-145478940D02*
X169249973Y-145540845D01*
X169249973Y-145540845D02*
X169126164Y-145540845D01*
X168692830Y-145540845D02*
X168692830Y-144240845D01*
X168135687Y-145540845D02*
X168135687Y-144859892D01*
X168135687Y-144859892D02*
X168197592Y-144736083D01*
X168197592Y-144736083D02*
X168321401Y-144674178D01*
X168321401Y-144674178D02*
X168507115Y-144674178D01*
X168507115Y-144674178D02*
X168630925Y-144736083D01*
X168630925Y-144736083D02*
X168692830Y-144797988D01*
X166959496Y-144674178D02*
X166959496Y-145540845D01*
X167516639Y-144674178D02*
X167516639Y-145355130D01*
X167516639Y-145355130D02*
X167454734Y-145478940D01*
X167454734Y-145478940D02*
X167330924Y-145540845D01*
X167330924Y-145540845D02*
X167145210Y-145540845D01*
X167145210Y-145540845D02*
X167021401Y-145478940D01*
X167021401Y-145478940D02*
X166959496Y-145417035D01*
X166340448Y-145540845D02*
X166340448Y-144240845D01*
X166340448Y-144736083D02*
X166216638Y-144674178D01*
X166216638Y-144674178D02*
X165969019Y-144674178D01*
X165969019Y-144674178D02*
X165845210Y-144736083D01*
X165845210Y-144736083D02*
X165783305Y-144797988D01*
X165783305Y-144797988D02*
X165721400Y-144921797D01*
X165721400Y-144921797D02*
X165721400Y-145293226D01*
X165721400Y-145293226D02*
X165783305Y-145417035D01*
X165783305Y-145417035D02*
X165845210Y-145478940D01*
X165845210Y-145478940D02*
X165969019Y-145540845D01*
X165969019Y-145540845D02*
X166216638Y-145540845D01*
X166216638Y-145540845D02*
X166340448Y-145478940D01*
X165164257Y-145417035D02*
X165102352Y-145478940D01*
X165102352Y-145478940D02*
X165164257Y-145540845D01*
X165164257Y-145540845D02*
X165226161Y-145478940D01*
X165226161Y-145478940D02*
X165164257Y-145417035D01*
X165164257Y-145417035D02*
X165164257Y-145540845D01*
X163988066Y-145478940D02*
X164111875Y-145540845D01*
X164111875Y-145540845D02*
X164359494Y-145540845D01*
X164359494Y-145540845D02*
X164483304Y-145478940D01*
X164483304Y-145478940D02*
X164545209Y-145417035D01*
X164545209Y-145417035D02*
X164607113Y-145293226D01*
X164607113Y-145293226D02*
X164607113Y-144921797D01*
X164607113Y-144921797D02*
X164545209Y-144797988D01*
X164545209Y-144797988D02*
X164483304Y-144736083D01*
X164483304Y-144736083D02*
X164359494Y-144674178D01*
X164359494Y-144674178D02*
X164111875Y-144674178D01*
X164111875Y-144674178D02*
X163988066Y-144736083D01*
X163245208Y-145540845D02*
X163369018Y-145478940D01*
X163369018Y-145478940D02*
X163430923Y-145417035D01*
X163430923Y-145417035D02*
X163492827Y-145293226D01*
X163492827Y-145293226D02*
X163492827Y-144921797D01*
X163492827Y-144921797D02*
X163430923Y-144797988D01*
X163430923Y-144797988D02*
X163369018Y-144736083D01*
X163369018Y-144736083D02*
X163245208Y-144674178D01*
X163245208Y-144674178D02*
X163059494Y-144674178D01*
X163059494Y-144674178D02*
X162935685Y-144736083D01*
X162935685Y-144736083D02*
X162873780Y-144797988D01*
X162873780Y-144797988D02*
X162811875Y-144921797D01*
X162811875Y-144921797D02*
X162811875Y-145293226D01*
X162811875Y-145293226D02*
X162873780Y-145417035D01*
X162873780Y-145417035D02*
X162935685Y-145478940D01*
X162935685Y-145478940D02*
X163059494Y-145540845D01*
X163059494Y-145540845D02*
X163245208Y-145540845D01*
X162254732Y-145540845D02*
X162254732Y-144674178D01*
X162254732Y-144797988D02*
X162192827Y-144736083D01*
X162192827Y-144736083D02*
X162069017Y-144674178D01*
X162069017Y-144674178D02*
X161883303Y-144674178D01*
X161883303Y-144674178D02*
X161759494Y-144736083D01*
X161759494Y-144736083D02*
X161697589Y-144859892D01*
X161697589Y-144859892D02*
X161697589Y-145540845D01*
X161697589Y-144859892D02*
X161635684Y-144736083D01*
X161635684Y-144736083D02*
X161511875Y-144674178D01*
X161511875Y-144674178D02*
X161326160Y-144674178D01*
X161326160Y-144674178D02*
X161202351Y-144736083D01*
X161202351Y-144736083D02*
X161140446Y-144859892D01*
X161140446Y-144859892D02*
X161140446Y-145540845D01*
X159592826Y-144178940D02*
X160707112Y-145850369D01*
X159159493Y-144674178D02*
X159159493Y-145974178D01*
X159159493Y-144736083D02*
X159035683Y-144674178D01*
X159035683Y-144674178D02*
X158788064Y-144674178D01*
X158788064Y-144674178D02*
X158664255Y-144736083D01*
X158664255Y-144736083D02*
X158602350Y-144797988D01*
X158602350Y-144797988D02*
X158540445Y-144921797D01*
X158540445Y-144921797D02*
X158540445Y-145293226D01*
X158540445Y-145293226D02*
X158602350Y-145417035D01*
X158602350Y-145417035D02*
X158664255Y-145478940D01*
X158664255Y-145478940D02*
X158788064Y-145540845D01*
X158788064Y-145540845D02*
X159035683Y-145540845D01*
X159035683Y-145540845D02*
X159159493Y-145478940D01*
X157488064Y-145478940D02*
X157611873Y-145540845D01*
X157611873Y-145540845D02*
X157859492Y-145540845D01*
X157859492Y-145540845D02*
X157983302Y-145478940D01*
X157983302Y-145478940D02*
X158045206Y-145355130D01*
X158045206Y-145355130D02*
X158045206Y-144859892D01*
X158045206Y-144859892D02*
X157983302Y-144736083D01*
X157983302Y-144736083D02*
X157859492Y-144674178D01*
X157859492Y-144674178D02*
X157611873Y-144674178D01*
X157611873Y-144674178D02*
X157488064Y-144736083D01*
X157488064Y-144736083D02*
X157426159Y-144859892D01*
X157426159Y-144859892D02*
X157426159Y-144983702D01*
X157426159Y-144983702D02*
X158045206Y-145107511D01*
X156373778Y-145478940D02*
X156497587Y-145540845D01*
X156497587Y-145540845D02*
X156745206Y-145540845D01*
X156745206Y-145540845D02*
X156869016Y-145478940D01*
X156869016Y-145478940D02*
X156930920Y-145355130D01*
X156930920Y-145355130D02*
X156930920Y-144859892D01*
X156930920Y-144859892D02*
X156869016Y-144736083D01*
X156869016Y-144736083D02*
X156745206Y-144674178D01*
X156745206Y-144674178D02*
X156497587Y-144674178D01*
X156497587Y-144674178D02*
X156373778Y-144736083D01*
X156373778Y-144736083D02*
X156311873Y-144859892D01*
X156311873Y-144859892D02*
X156311873Y-144983702D01*
X156311873Y-144983702D02*
X156930920Y-145107511D01*
X155754730Y-144674178D02*
X155754730Y-145788464D01*
X155754730Y-145788464D02*
X155816634Y-145912273D01*
X155816634Y-145912273D02*
X155940444Y-145974178D01*
X155940444Y-145974178D02*
X156002349Y-145974178D01*
X155754730Y-144240845D02*
X155816634Y-144302750D01*
X155816634Y-144302750D02*
X155754730Y-144364654D01*
X155754730Y-144364654D02*
X155692825Y-144302750D01*
X155692825Y-144302750D02*
X155754730Y-144240845D01*
X155754730Y-144240845D02*
X155754730Y-144364654D01*
X154207110Y-144178940D02*
X155321396Y-145850369D01*
X153588062Y-145540845D02*
X153711872Y-145478940D01*
X153711872Y-145478940D02*
X153773777Y-145355130D01*
X153773777Y-145355130D02*
X153773777Y-144240845D01*
X152535681Y-144674178D02*
X152535681Y-145540845D01*
X153092824Y-144674178D02*
X153092824Y-145355130D01*
X153092824Y-145355130D02*
X153030919Y-145478940D01*
X153030919Y-145478940D02*
X152907109Y-145540845D01*
X152907109Y-145540845D02*
X152721395Y-145540845D01*
X152721395Y-145540845D02*
X152597586Y-145478940D01*
X152597586Y-145478940D02*
X152535681Y-145417035D01*
X151916633Y-145540845D02*
X151916633Y-144674178D01*
X151916633Y-144797988D02*
X151854728Y-144736083D01*
X151854728Y-144736083D02*
X151730918Y-144674178D01*
X151730918Y-144674178D02*
X151545204Y-144674178D01*
X151545204Y-144674178D02*
X151421395Y-144736083D01*
X151421395Y-144736083D02*
X151359490Y-144859892D01*
X151359490Y-144859892D02*
X151359490Y-145540845D01*
X151359490Y-144859892D02*
X151297585Y-144736083D01*
X151297585Y-144736083D02*
X151173776Y-144674178D01*
X151173776Y-144674178D02*
X150988061Y-144674178D01*
X150988061Y-144674178D02*
X150864252Y-144736083D01*
X150864252Y-144736083D02*
X150802347Y-144859892D01*
X150802347Y-144859892D02*
X150802347Y-145540845D01*
X150183299Y-145540845D02*
X150183299Y-144240845D01*
X150183299Y-144736083D02*
X150059489Y-144674178D01*
X150059489Y-144674178D02*
X149811870Y-144674178D01*
X149811870Y-144674178D02*
X149688061Y-144736083D01*
X149688061Y-144736083D02*
X149626156Y-144797988D01*
X149626156Y-144797988D02*
X149564251Y-144921797D01*
X149564251Y-144921797D02*
X149564251Y-145293226D01*
X149564251Y-145293226D02*
X149626156Y-145417035D01*
X149626156Y-145417035D02*
X149688061Y-145478940D01*
X149688061Y-145478940D02*
X149811870Y-145540845D01*
X149811870Y-145540845D02*
X150059489Y-145540845D01*
X150059489Y-145540845D02*
X150183299Y-145478940D01*
X148511870Y-145478940D02*
X148635679Y-145540845D01*
X148635679Y-145540845D02*
X148883298Y-145540845D01*
X148883298Y-145540845D02*
X149007108Y-145478940D01*
X149007108Y-145478940D02*
X149069012Y-145355130D01*
X149069012Y-145355130D02*
X149069012Y-144859892D01*
X149069012Y-144859892D02*
X149007108Y-144736083D01*
X149007108Y-144736083D02*
X148883298Y-144674178D01*
X148883298Y-144674178D02*
X148635679Y-144674178D01*
X148635679Y-144674178D02*
X148511870Y-144736083D01*
X148511870Y-144736083D02*
X148449965Y-144859892D01*
X148449965Y-144859892D02*
X148449965Y-144983702D01*
X148449965Y-144983702D02*
X149069012Y-145107511D01*
X147892822Y-145540845D02*
X147892822Y-144674178D01*
X147892822Y-144921797D02*
X147830917Y-144797988D01*
X147830917Y-144797988D02*
X147769012Y-144736083D01*
X147769012Y-144736083D02*
X147645203Y-144674178D01*
X147645203Y-144674178D02*
X147521393Y-144674178D01*
X147088060Y-144674178D02*
X147088060Y-145788464D01*
X147088060Y-145788464D02*
X147149964Y-145912273D01*
X147149964Y-145912273D02*
X147273774Y-145974178D01*
X147273774Y-145974178D02*
X147335679Y-145974178D01*
X147088060Y-144240845D02*
X147149964Y-144302750D01*
X147149964Y-144302750D02*
X147088060Y-144364654D01*
X147088060Y-144364654D02*
X147026155Y-144302750D01*
X147026155Y-144302750D02*
X147088060Y-144240845D01*
X147088060Y-144240845D02*
X147088060Y-144364654D01*
X145911869Y-145540845D02*
X145911869Y-144859892D01*
X145911869Y-144859892D02*
X145973774Y-144736083D01*
X145973774Y-144736083D02*
X146097583Y-144674178D01*
X146097583Y-144674178D02*
X146345202Y-144674178D01*
X146345202Y-144674178D02*
X146469012Y-144736083D01*
X145911869Y-145478940D02*
X146035678Y-145540845D01*
X146035678Y-145540845D02*
X146345202Y-145540845D01*
X146345202Y-145540845D02*
X146469012Y-145478940D01*
X146469012Y-145478940D02*
X146530916Y-145355130D01*
X146530916Y-145355130D02*
X146530916Y-145231321D01*
X146530916Y-145231321D02*
X146469012Y-145107511D01*
X146469012Y-145107511D02*
X146345202Y-145045607D01*
X146345202Y-145045607D02*
X146035678Y-145045607D01*
X146035678Y-145045607D02*
X145911869Y-144983702D01*
X144735678Y-145478940D02*
X144859487Y-145540845D01*
X144859487Y-145540845D02*
X145107106Y-145540845D01*
X145107106Y-145540845D02*
X145230916Y-145478940D01*
X145230916Y-145478940D02*
X145292821Y-145417035D01*
X145292821Y-145417035D02*
X145354725Y-145293226D01*
X145354725Y-145293226D02*
X145354725Y-144921797D01*
X145354725Y-144921797D02*
X145292821Y-144797988D01*
X145292821Y-144797988D02*
X145230916Y-144736083D01*
X145230916Y-144736083D02*
X145107106Y-144674178D01*
X145107106Y-144674178D02*
X144859487Y-144674178D01*
X144859487Y-144674178D02*
X144735678Y-144736083D01*
X144178535Y-145540845D02*
X144178535Y-144240845D01*
X144054725Y-145045607D02*
X143683297Y-145540845D01*
X143683297Y-144674178D02*
X144178535Y-145169416D01*
X143126154Y-145045607D02*
X142135678Y-145045607D01*
X141516630Y-145540845D02*
X141516630Y-144240845D01*
X141392820Y-145045607D02*
X141021392Y-145540845D01*
X141021392Y-144674178D02*
X141516630Y-145169416D01*
X139969011Y-145478940D02*
X140092820Y-145540845D01*
X140092820Y-145540845D02*
X140340439Y-145540845D01*
X140340439Y-145540845D02*
X140464249Y-145478940D01*
X140464249Y-145478940D02*
X140526153Y-145355130D01*
X140526153Y-145355130D02*
X140526153Y-144859892D01*
X140526153Y-144859892D02*
X140464249Y-144736083D01*
X140464249Y-144736083D02*
X140340439Y-144674178D01*
X140340439Y-144674178D02*
X140092820Y-144674178D01*
X140092820Y-144674178D02*
X139969011Y-144736083D01*
X139969011Y-144736083D02*
X139907106Y-144859892D01*
X139907106Y-144859892D02*
X139907106Y-144983702D01*
X139907106Y-144983702D02*
X140526153Y-145107511D01*
X139473772Y-144674178D02*
X139164248Y-145540845D01*
X138854725Y-144674178D02*
X139164248Y-145540845D01*
X139164248Y-145540845D02*
X139288058Y-145850369D01*
X139288058Y-145850369D02*
X139349963Y-145912273D01*
X139349963Y-145912273D02*
X139473772Y-145974178D01*
X138359486Y-145540845D02*
X138359486Y-144240845D01*
X138359486Y-144736083D02*
X138235676Y-144674178D01*
X138235676Y-144674178D02*
X137988057Y-144674178D01*
X137988057Y-144674178D02*
X137864248Y-144736083D01*
X137864248Y-144736083D02*
X137802343Y-144797988D01*
X137802343Y-144797988D02*
X137740438Y-144921797D01*
X137740438Y-144921797D02*
X137740438Y-145293226D01*
X137740438Y-145293226D02*
X137802343Y-145417035D01*
X137802343Y-145417035D02*
X137864248Y-145478940D01*
X137864248Y-145478940D02*
X137988057Y-145540845D01*
X137988057Y-145540845D02*
X138235676Y-145540845D01*
X138235676Y-145540845D02*
X138359486Y-145478940D01*
X136997580Y-145540845D02*
X137121390Y-145478940D01*
X137121390Y-145478940D02*
X137183295Y-145417035D01*
X137183295Y-145417035D02*
X137245199Y-145293226D01*
X137245199Y-145293226D02*
X137245199Y-144921797D01*
X137245199Y-144921797D02*
X137183295Y-144797988D01*
X137183295Y-144797988D02*
X137121390Y-144736083D01*
X137121390Y-144736083D02*
X136997580Y-144674178D01*
X136997580Y-144674178D02*
X136811866Y-144674178D01*
X136811866Y-144674178D02*
X136688057Y-144736083D01*
X136688057Y-144736083D02*
X136626152Y-144797988D01*
X136626152Y-144797988D02*
X136564247Y-144921797D01*
X136564247Y-144921797D02*
X136564247Y-145293226D01*
X136564247Y-145293226D02*
X136626152Y-145417035D01*
X136626152Y-145417035D02*
X136688057Y-145478940D01*
X136688057Y-145478940D02*
X136811866Y-145540845D01*
X136811866Y-145540845D02*
X136997580Y-145540845D01*
X135449961Y-145540845D02*
X135449961Y-144859892D01*
X135449961Y-144859892D02*
X135511866Y-144736083D01*
X135511866Y-144736083D02*
X135635675Y-144674178D01*
X135635675Y-144674178D02*
X135883294Y-144674178D01*
X135883294Y-144674178D02*
X136007104Y-144736083D01*
X135449961Y-145478940D02*
X135573770Y-145540845D01*
X135573770Y-145540845D02*
X135883294Y-145540845D01*
X135883294Y-145540845D02*
X136007104Y-145478940D01*
X136007104Y-145478940D02*
X136069008Y-145355130D01*
X136069008Y-145355130D02*
X136069008Y-145231321D01*
X136069008Y-145231321D02*
X136007104Y-145107511D01*
X136007104Y-145107511D02*
X135883294Y-145045607D01*
X135883294Y-145045607D02*
X135573770Y-145045607D01*
X135573770Y-145045607D02*
X135449961Y-144983702D01*
X134830913Y-145540845D02*
X134830913Y-144674178D01*
X134830913Y-144921797D02*
X134769008Y-144797988D01*
X134769008Y-144797988D02*
X134707103Y-144736083D01*
X134707103Y-144736083D02*
X134583294Y-144674178D01*
X134583294Y-144674178D02*
X134459484Y-144674178D01*
X133469008Y-145540845D02*
X133469008Y-144240845D01*
X133469008Y-145478940D02*
X133592817Y-145540845D01*
X133592817Y-145540845D02*
X133840436Y-145540845D01*
X133840436Y-145540845D02*
X133964246Y-145478940D01*
X133964246Y-145478940D02*
X134026151Y-145417035D01*
X134026151Y-145417035D02*
X134088055Y-145293226D01*
X134088055Y-145293226D02*
X134088055Y-144921797D01*
X134088055Y-144921797D02*
X134026151Y-144797988D01*
X134026151Y-144797988D02*
X133964246Y-144736083D01*
X133964246Y-144736083D02*
X133840436Y-144674178D01*
X133840436Y-144674178D02*
X133592817Y-144674178D01*
X133592817Y-144674178D02*
X133469008Y-144736083D01*
D11*
X156209968Y-100488750D02*
X156209968Y-103028750D01*
X148589968Y-100488750D02*
X156209968Y-100488750D01*
X161289968Y-103028750D02*
X161289968Y-133508750D01*
X156209968Y-103028750D02*
X161289968Y-103028750D01*
X148589968Y-103028750D02*
X148589968Y-100488750D01*
X143509968Y-103028750D02*
X148589968Y-103028750D01*
X161289968Y-133508750D02*
X143509968Y-133508750D01*
X143509968Y-133508750D02*
X143509968Y-103028750D01*
X28956218Y-70818750D02*
X26556218Y-70818750D01*
X26556218Y-70818750D02*
X26556218Y-71818750D01*
X30756218Y-75818750D02*
X30756218Y-71818750D01*
X26556218Y-75818750D02*
X26556218Y-76818750D01*
X26556218Y-76818750D02*
X28956218Y-76818750D01*
X24624968Y-52550000D02*
X32524968Y-52550000D01*
X24624968Y-58125000D02*
X24624968Y-61750000D01*
X24624968Y-61750000D02*
X26049968Y-61750000D01*
X31099968Y-61750000D02*
X32524968Y-61750000D01*
X32524968Y-58125000D02*
X32524968Y-61750000D01*
D12*
X27099968Y-63099996D02*
G75*
G03*
X27099968Y-63099996I-125000J0D01*
G01*
M02*
