M48
; DRILL file {KiCad (6.99.0-566-g22ff66f142)} date Thu Apr 28 17:10:07 2022
; FORMAT={-:-/ absolute / inch / decimal}
; #@! TF.CreationDate,2022-04-28T17:10:07+03:00
; #@! TF.GenerationSoftware,Kicad,Pcbnew,(6.99.0-566-g22ff66f142)
; #@! TF.FileFunction,Plated,1,2,PTH
FMAT,2
INCH
; #@! TA.AperFunction,Plated,PTH,ViaDrill
T1C0.0157
; #@! TA.AperFunction,Plated,PTH,ComponentDrill
T2C0.0276
; #@! TA.AperFunction,Plated,PTH,ComponentDrill
T3C0.0433
; #@! TA.AperFunction,Plated,PTH,ComponentDrill
T4C0.0551
; #@! TA.AperFunction,Plated,PTH,ComponentDrill
T5C0.0579
; #@! TA.AperFunction,Plated,PTH,ComponentDrill
T6C0.0748
%
G90
G05
T1
X0.9183Y-2.8866
X0.9183Y-2.9653
X0.9193Y-2.8472
X0.9193Y-2.9259
X4.7343Y-2.8472
X4.7343Y-2.9643
X4.7352Y-2.8866
X4.7352Y-2.9259
X5.7667Y-3.1562
X5.939Y-2.8472
X5.9783Y-2.8866
X6.0177Y-2.925
X6.0571Y-2.9643
X6.2485Y-5.5288
T2
X1.062Y-2.4193
X1.0935Y-2.372
X1.125Y-2.4193
X1.1565Y-2.372
X1.188Y-2.4193
T3
X5.7Y-4.1063
X5.7Y-4.2062
X5.7Y-4.3062
X5.7Y-4.4062
X5.7Y-4.5062
X5.7Y-4.6063
X5.7Y-4.7062
X5.7Y-4.8062
X5.7Y-4.9062
X5.7Y-5.0062
X5.7Y-5.1063
X5.7Y-5.2062
X6.3Y-4.1063
X6.3Y-4.2062
X6.3Y-4.3062
X6.3Y-4.4062
X6.3Y-4.5062
X6.3Y-4.6063
X6.3Y-4.7062
X6.3Y-4.8062
X6.3Y-4.9062
X6.3Y-5.0062
X6.3Y-5.1063
X6.3Y-5.2062
T4
X0.6201Y-2.5053
X0.6201Y-2.7305
X0.6201Y-3.2553
X0.6201Y-3.4805
X0.6201Y-4.0053
X0.6201Y-4.2305
X0.6201Y-4.7553
X0.6201Y-4.9805
X0.6201Y-5.5053
X0.6201Y-5.7305
X0.8799Y-2.5053
X0.8799Y-2.7305
X0.8799Y-3.2553
X0.8799Y-3.4805
X0.8799Y-4.0053
X0.8799Y-4.2305
X0.8799Y-4.7553
X0.8799Y-4.9805
X0.8799Y-5.5053
X0.8799Y-5.7305
X1.3701Y-2.5053
X1.3701Y-2.7305
X1.3701Y-3.4805
X1.3701Y-4.0053
X1.3701Y-4.2305
X1.3701Y-4.7553
X1.3701Y-4.9805
X1.3701Y-5.5053
X1.3701Y-5.7305
X1.6299Y-2.5053
X1.6299Y-2.7305
X1.6299Y-3.2553
X1.6299Y-3.4805
X1.6299Y-4.0053
X1.6299Y-4.2305
X1.6299Y-4.7553
X1.6299Y-4.9805
X1.6299Y-5.5053
X1.6299Y-5.7305
X2.1201Y-2.5053
X2.1201Y-2.7305
X2.1201Y-3.2553
X2.1201Y-3.4805
X2.1201Y-4.0053
X2.1201Y-4.2305
X2.1201Y-4.7553
X2.1201Y-4.9805
X2.1201Y-5.5053
X2.1201Y-5.7305
X2.3799Y-2.5053
X2.3799Y-2.7305
X2.3799Y-3.2553
X2.3799Y-3.4805
X2.3799Y-4.0053
X2.3799Y-4.2305
X2.3799Y-4.7553
X2.3799Y-4.9805
X2.3799Y-5.5053
X2.3799Y-5.7305
X2.8701Y-2.5053
X2.8701Y-2.7305
X2.8701Y-3.2553
X2.8701Y-3.4805
X2.8701Y-4.0053
X2.8701Y-4.2305
X2.8701Y-4.7553
X2.8701Y-4.9805
X2.8701Y-5.5053
X2.8701Y-5.7305
X3.1299Y-2.5053
X3.1299Y-2.7305
X3.1299Y-3.2553
X3.1299Y-3.4805
X3.1299Y-4.0053
X3.1299Y-4.2305
X3.1299Y-4.7553
X3.1299Y-4.9805
X3.1299Y-5.5053
X3.1299Y-5.7305
X3.6201Y-2.5053
X3.6201Y-2.7305
X3.6201Y-3.2553
X3.6201Y-3.4805
X3.6201Y-4.0053
X3.6201Y-4.2305
X3.6201Y-4.7553
X3.6201Y-4.9805
X3.6201Y-5.5053
X3.6201Y-5.7305
X3.8799Y-2.5053
X3.8799Y-2.7305
X3.8799Y-3.2553
X3.8799Y-3.4805
X3.8799Y-4.0053
X3.8799Y-4.2305
X3.8799Y-4.7553
X3.8799Y-4.9805
X3.8799Y-5.5053
X3.8799Y-5.7305
X3.9951Y-5.5053
X3.9951Y-5.7305
X4.2549Y-5.5053
X4.2549Y-5.7305
X4.3701Y-2.5053
X4.3701Y-2.7305
X4.3701Y-3.2553
X4.3701Y-3.4805
X4.3701Y-4.0053
X4.3701Y-4.2305
X4.3701Y-4.7553
X4.3701Y-4.9805
X4.3701Y-5.5053
X4.3701Y-5.7305
X4.6299Y-2.5053
X4.6299Y-2.7305
X4.6299Y-3.2553
X4.6299Y-3.4805
X4.6299Y-4.0053
X4.6299Y-4.2305
X4.6299Y-4.7553
X4.6299Y-4.9805
X4.6299Y-5.5053
X4.6299Y-5.7305
X7.3701Y-2.5053
X7.3701Y-2.7305
X7.3701Y-3.2553
X7.3701Y-3.4805
X7.3701Y-4.0053
X7.3701Y-4.2305
X7.3701Y-4.7553
X7.3701Y-4.9805
X7.3701Y-5.5053
X7.3701Y-5.7305
X7.6299Y-2.5053
X7.6299Y-2.7305
X7.6299Y-3.2553
X7.6299Y-3.4805
X7.6299Y-4.0053
X7.6299Y-4.2305
X7.6299Y-4.7553
X7.6299Y-4.9805
X7.6299Y-5.5053
X7.6299Y-5.7305
X7.7451Y-5.5053
X7.7451Y-5.7305
X8.0049Y-5.5053
X8.0049Y-5.7305
X8.1201Y-2.5053
X8.1201Y-2.7305
X8.1201Y-3.2553
X8.1201Y-3.4805
X8.1201Y-4.0053
X8.1201Y-4.2305
X8.1201Y-4.7553
X8.1201Y-4.9805
X8.1201Y-5.5053
X8.1201Y-5.7305
X8.3799Y-2.5053
X8.3799Y-2.7305
X8.3799Y-3.2553
X8.3799Y-3.4805
X8.3799Y-4.0053
X8.3799Y-4.2305
X8.3799Y-4.7553
X8.3799Y-4.9805
X8.3799Y-5.5053
X8.3799Y-5.7305
X8.8701Y-2.5053
X8.8701Y-2.7305
X8.8701Y-3.2553
X8.8701Y-3.4805
X8.8701Y-4.0053
X8.8701Y-4.2305
X8.8701Y-4.7553
X8.8701Y-4.9805
X8.8701Y-5.5053
X8.8701Y-5.7305
X9.1299Y-2.5053
X9.1299Y-2.7305
X9.1299Y-3.2553
X9.1299Y-3.4805
X9.1299Y-4.0053
X9.1299Y-4.2305
X9.1299Y-4.7553
X9.1299Y-4.9805
X9.1299Y-5.5053
X9.1299Y-5.7305
X9.6201Y-2.5053
X9.6201Y-2.7305
X9.6201Y-3.2553
X9.6201Y-3.4805
X9.6201Y-4.0053
X9.6201Y-4.2305
X9.6201Y-4.7553
X9.6201Y-4.9805
X9.6201Y-5.5053
X9.6201Y-5.7305
X9.8799Y-2.5053
X9.8799Y-2.7305
X9.8799Y-3.2553
X9.8799Y-3.4805
X9.8799Y-4.0053
X9.8799Y-4.2305
X9.8799Y-4.7553
X9.8799Y-4.9805
X9.8799Y-5.5053
X9.8799Y-5.7305
X10.3701Y-2.5053
X10.3701Y-2.7305
X10.3701Y-3.2553
X10.3701Y-3.4805
X10.3701Y-4.0053
X10.3701Y-4.2305
X10.3701Y-4.7553
X10.3701Y-4.9805
X10.3701Y-5.5053
X10.3701Y-5.7305
X10.6299Y-2.5053
X10.6299Y-2.7305
X10.6299Y-3.4805
X10.6299Y-4.0053
X10.6299Y-4.2305
X10.6299Y-4.7553
X10.6299Y-4.9805
X10.6299Y-5.5053
X10.6299Y-5.7305
X11.1201Y-3.2553
X11.1201Y-3.4805
X11.1201Y-4.0053
X11.1201Y-4.2305
X11.1201Y-4.7553
X11.1201Y-4.9805
X11.1201Y-5.5053
X11.1201Y-5.7305
X11.1201Y-2.5053
X11.1201Y-2.7305
X11.3799Y-3.2553
X11.3799Y-3.4805
X11.3799Y-4.0053
X11.3799Y-4.2305
X11.3799Y-4.7553
X11.3799Y-4.9805
X11.3799Y-5.5053
X11.3799Y-5.7305
X11.3799Y-2.5053
X11.3799Y-2.7305
T5
X0.6516Y-2.3738
X0.6516Y-3.1238
X0.6516Y-3.8738
X0.6516Y-4.6238
X0.6516Y-5.3738
X0.8484Y-2.3541
X0.8484Y-3.1041
X0.8484Y-3.8541
X0.8484Y-4.6041
X0.8484Y-5.3541
X1.4016Y-2.3738
X1.4016Y-3.1238
X1.4016Y-3.8738
X1.4016Y-4.6238
X1.4016Y-5.3738
X1.5984Y-2.3541
X1.5984Y-3.1041
X1.5984Y-3.8541
X1.5984Y-4.6041
X1.5984Y-5.3541
X2.1516Y-2.3738
X2.1516Y-3.1238
X2.1516Y-3.8738
X2.1516Y-4.6238
X2.1516Y-5.3738
X2.3484Y-2.3541
X2.3484Y-3.1041
X2.3484Y-3.8541
X2.3484Y-4.6041
X2.3484Y-5.3541
X2.9016Y-2.3738
X2.9016Y-3.1238
X2.9016Y-3.8738
X2.9016Y-4.6238
X2.9016Y-5.3738
X3.0984Y-2.3541
X3.0984Y-3.1041
X3.0984Y-3.8541
X3.0984Y-4.6041
X3.0984Y-5.3541
X3.6516Y-2.3738
X3.6516Y-3.1238
X3.6516Y-3.8738
X3.6516Y-4.6238
X3.6516Y-5.3738
X3.8484Y-2.3541
X3.8484Y-3.1041
X3.8484Y-3.8541
X3.8484Y-4.6041
X3.8484Y-5.3541
X4.0266Y-5.3738
X4.2234Y-5.3541
X4.4016Y-2.3738
X4.4016Y-3.1238
X4.4016Y-3.8738
X4.4016Y-4.6238
X4.4016Y-5.3738
X4.5984Y-2.3541
X4.5984Y-3.1041
X4.5984Y-3.8541
X4.5984Y-4.6041
X4.5984Y-5.3541
X7.4016Y-2.3738
X7.4016Y-3.1238
X7.4016Y-3.8738
X7.4016Y-4.6238
X7.4016Y-5.3738
X7.5984Y-2.3541
X7.5984Y-3.1041
X7.5984Y-3.8541
X7.5984Y-4.6041
X7.5984Y-5.3541
X7.7766Y-5.3738
X7.9734Y-5.3541
X8.1516Y-2.3738
X8.1516Y-3.1238
X8.1516Y-3.8738
X8.1516Y-4.6238
X8.1516Y-5.3738
X8.3484Y-2.3541
X8.3484Y-3.1041
X8.3484Y-3.8541
X8.3484Y-4.6041
X8.3484Y-5.3541
X8.9016Y-2.3738
X8.9016Y-3.1238
X8.9016Y-3.8738
X8.9016Y-4.6238
X8.9016Y-5.3738
X9.0984Y-2.3541
X9.0984Y-3.1041
X9.0984Y-3.8541
X9.0984Y-4.6041
X9.0984Y-5.3541
X9.6516Y-2.3738
X9.6516Y-3.1238
X9.6516Y-3.8738
X9.6516Y-4.6238
X9.6516Y-5.3738
X9.8484Y-2.3541
X9.8484Y-3.1041
X9.8484Y-3.8541
X9.8484Y-4.6041
X9.8484Y-5.3541
X10.4016Y-2.3738
X10.4016Y-3.1238
X10.4016Y-3.8738
X10.4016Y-4.6238
X10.4016Y-5.3738
X10.5984Y-2.3541
X10.5984Y-3.1041
X10.5984Y-3.8541
X10.5984Y-4.6041
X10.5984Y-5.3541
X11.1516Y-3.1238
X11.1516Y-3.8738
X11.1516Y-4.6238
X11.1516Y-5.3738
X11.1516Y-2.3738
X11.3484Y-3.1041
X11.3484Y-3.8541
X11.3484Y-4.6041
X11.3484Y-5.3541
X11.3484Y-2.3541
T6
G00X0.9813Y-2.2205
M15
G01X0.9813Y-2.2205
M16
G05
G00X1.2687Y-2.2205
M15
G01X1.2687Y-2.2205
M16
G05
T0
M30
